<svg width="160" height="51" viewBox="0 0 160 51" fill="none" xmlns="http://www.w3.org/2000/svg">
<g clip-path="url(#clip0)">
<path fill-rule="evenodd" clip-rule="evenodd" d="M29.9118 31.0848C29.9457 25.5762 25.108 20.6859 19.5606 20.6195C13.7741 20.5521 8.8032 25.4166 8.78176 31.1691C8.76145 36.6383 13.7481 41.4174 19.4884 41.4286C25.0425 41.4398 29.8769 36.6428 29.9118 31.0848ZM80.7328 13.3183C82.6011 14.3366 84.079 15.6887 85.1666 17.378C86.5137 15.5583 88.1541 14.1736 90.0889 13.2205C92.0216 12.2685 94.2294 11.7919 96.7058 11.7919C101.14 11.7919 104.703 13.2317 107.398 16.1113C110.093 18.9909 111.44 22.9203 111.44 27.8995V48.9434H102.77V29.8484C102.77 26.6001 102.182 24.1432 101.009 22.4763C99.8355 20.8095 98.0529 19.9755 95.6622 19.9755C93.2716 20.0193 91.5003 20.8634 90.3496 22.5089C89.1977 24.1555 88.6223 26.6001 88.6223 29.8484V48.9434H79.9509V29.8484C79.9509 26.6001 79.3643 24.1432 78.1909 22.4763C77.0165 20.8095 75.2339 19.9755 72.8433 19.9755C70.4526 19.9755 68.6712 20.8095 67.4978 22.4763C66.3245 24.1432 65.7593 26.6001 65.8022 29.8484V48.9434H65.5506H56.9097V12.8721H65.5506V15.827C66.5073 14.6131 67.7314 13.6566 69.2262 12.9608C70.8982 12.1819 72.691 11.7919 74.6044 11.7919C76.8213 11.7919 78.8645 12.3011 80.7328 13.3183ZM52.1667 12.8721V48.9434H43.5258V12.8721H52.1667ZM38.9386 12.7788V48.9479H30.0438C29.9795 48.323 29.9163 47.7262 29.8475 47.0563C18.8216 52.1692 9.31089 50.798 2.53717 40.1158C-1.70148 33.4316 -0.439023 24.5613 4.90752 18.665C11.0359 11.9054 19.2063 10.7747 29.9164 15.3425V12.7788H38.9386ZM131.257 12.7169C135.729 12.7169 139.274 13.7521 141.893 15.8236C144.511 17.8939 145.965 20.687 146.258 24.2027H137.426C137.336 23.3294 137.173 22.5966 136.937 22.0031C136.701 21.4097 136.123 20.85 135.201 20.3239C134.279 19.7979 133.033 19.5349 131.459 19.5349C129.796 19.5349 128.487 19.808 127.532 20.3577C126.577 20.9061 126.1 21.639 126.1 22.5573C126.1 22.8708 126.144 23.1563 126.234 23.4137C126.324 23.6711 126.481 23.9004 126.706 24.1016C126.931 24.3028 127.162 24.4882 127.397 24.6557C127.633 24.8232 127.959 24.9749 128.374 25.1087C128.791 25.2435 129.145 25.3548 129.437 25.4447C129.728 25.5346 130.128 25.6358 130.633 25.7471C131.139 25.8595 131.544 25.9426 131.847 25.9988C132.151 26.055 132.583 26.1281 133.144 26.218L134.358 26.4192C136.381 26.7317 138.083 27.1071 139.466 27.5443C140.848 27.9804 142.219 28.5907 143.578 29.3741C144.938 30.1575 145.954 31.2095 146.629 32.5313C147.302 33.852 147.64 35.4525 147.64 37.3329C147.64 41.1836 146.212 44.089 143.358 46.0481C140.505 48.0072 136.707 48.9861 131.964 48.9861C126.998 48.9861 123.122 47.9285 120.336 45.8132C117.548 43.6968 116.066 40.7362 115.885 36.9305H125.054C125.19 38.4524 125.836 39.7067 126.994 40.6913C128.15 41.677 129.852 42.1693 132.1 42.1693C133.853 42.1693 135.246 41.8108 136.28 41.0948C137.313 40.3777 137.831 39.5156 137.831 38.5086C137.831 37.8589 137.645 37.3216 137.275 36.8968C136.904 36.4708 136.314 36.1291 135.505 35.8729C134.696 35.6143 133.97 35.43 133.331 35.3187C132.69 35.2063 131.819 35.0827 130.718 34.949C129.437 34.8141 128.381 34.6747 127.55 34.5286C126.718 34.3836 125.544 34.0588 124.026 33.5552C122.51 33.0517 121.279 32.4583 120.336 31.7749C119.392 31.0926 118.549 30.0844 117.808 28.7525C117.065 27.4206 116.695 25.8808 116.695 24.1353C116.695 20.687 117.987 17.922 120.572 15.8404C123.155 13.7577 126.718 12.7169 131.257 12.7169ZM52.1453 0.507324V9.39114H43.4649V0.507324H52.1453ZM150.982 39.9124H159.663V48.7962H150.982V39.9124Z" fill="black"/>
</g>
<defs>
<clipPath id="clip0">
<rect width="160" height="50" fill="white" transform="translate(0 0.5)"/>
</clipPath>
</defs>
</svg>
