<svg width="136" height="51" viewBox="0 0 136 51" fill="none" xmlns="http://www.w3.org/2000/svg">
<g clip-path="url(#clip0)">
<path d="M64.82 24.6789C64.82 26.1487 64.3059 27.3981 63.3513 28.427C62.3967 29.4559 60.9281 29.9703 59.4594 29.9703C57.9908 29.9703 56.7425 29.4559 55.7879 28.427C54.9067 27.3981 54.3926 26.1487 54.3926 24.6789C54.3926 23.2091 54.9067 21.9597 55.7879 20.9308C56.7425 19.9019 57.9908 19.3875 59.4594 19.3875C60.9281 19.3875 62.4702 19.9019 63.4248 20.9308C64.3794 21.9597 64.82 23.2091 64.82 24.6789ZM64.7465 17.6237C63.2045 16.3008 61.2952 15.6394 59.0923 15.6394C56.669 15.6394 54.3192 16.5213 52.6303 18.2116C51.0148 19.9019 50.207 22.1067 50.207 24.6789C50.207 27.2511 51.0148 29.4559 52.6303 31.2197C54.2458 32.9835 56.5956 33.7919 59.0923 33.7919C61.3687 33.7919 63.0576 33.1305 64.7465 31.8076V33.4244H68.7119V16.0069H64.7465V17.6237Z" fill="black"/>
<path fill-rule="evenodd" clip-rule="evenodd" d="M72.3836 33.6449C74.4397 33.6449 76.0552 32.763 77.1567 31.0727C77.5973 30.4112 77.9644 29.3824 78.2581 28.7209C78.5519 27.986 78.8456 26.5897 78.9925 25.9282C79.0659 25.6343 79.2128 25.1198 79.2862 24.3849L79.5065 22.9151C79.5065 22.6211 79.6533 22.1067 79.7268 21.2982L79.9471 19.8284H83.839V33.4244H87.9512V16.0068H76.3489L76.2021 17.2562C75.8349 20.5633 75.5412 23.1355 75.174 24.9728C74.8803 26.7366 74.3663 28.133 73.7054 29.0884C73.0445 29.9703 72.2367 30.4112 71.1353 30.4112L71.3555 33.4979C71.7961 33.5714 72.1633 33.6449 72.3836 33.6449Z" fill="black"/>
<path d="M124.961 19.2405C128.926 19.2405 131.276 21.3718 131.276 24.6789C131.276 28.0595 128.853 30.1908 124.961 30.1908V19.2405ZM114.68 24.6789C114.68 21.2983 117.03 19.2405 120.995 19.2405V30.1908C117.103 30.1173 114.68 28.133 114.68 24.6789ZM135.315 24.6789C135.315 21.9597 134.36 19.7549 132.451 18.1381C130.541 16.5213 128.045 15.6394 124.961 15.5659V10.9359H120.995V15.5659C117.838 15.6394 115.341 16.5213 113.505 18.1381C111.596 19.7549 110.715 21.9597 110.715 24.6789C110.715 27.3981 111.596 29.5294 113.505 31.1462C115.414 32.763 117.911 33.5714 120.995 33.7184V38.3484H124.961V33.7184C128.118 33.6449 130.615 32.763 132.451 31.1462C134.36 29.6028 135.315 27.4716 135.315 24.6789Z" fill="black"/>
<path d="M94.0459 33.3509L103.812 22.5476V33.3509H107.778V16.0068H105.208L95.4411 26.9571V16.0068H91.4023V33.3509H94.0459Z" fill="black"/>
<path fill-rule="evenodd" clip-rule="evenodd" d="M22.3714 50.389C18.999 50.0725 15.8374 49.1233 12.8865 47.5412C7.30099 44.4824 2.98011 39.3142 0.977751 32.7749C-0.919222 26.2355 0.0292638 19.4852 3.0855 14.0006C7.09022 6.61746 14.7835 1.55474 23.0037 0.5H23.2145L25.3222 5.77367C25.2169 5.77367 25.1115 5.77367 25.1115 5.77367C18.1559 6.19557 11.2003 10.309 7.82793 16.532C5.40402 20.8564 4.7717 26.1301 6.24712 31.1928C7.72254 36.361 11.2003 40.369 15.5212 42.6894C17.8397 43.9551 20.369 44.6934 23.0037 45.0098C28.8 45.5372 34.1748 43.6387 38.3903 40.2635C38.6011 40.0526 38.8118 39.9471 39.0226 39.7361L41.1304 45.0098C35.9664 48.9123 29.327 51.0218 22.3714 50.389ZM28.0623 12.8404H21.4229L12.6758 34.4625H18.3667L24.7953 17.6922L31.2239 34.4625H36.9149L28.0623 12.8404Z" fill="#39B980"/>
</g>
<defs>
<clipPath id="clip0">
<rect width="136" height="50" fill="white" transform="translate(0 0.5)"/>
</clipPath>
</defs>
</svg>
