<svg width="80" height="85" viewBox="0 0 80 85" fill="none" xmlns="http://www.w3.org/2000/svg">
<path d="M2.09654 15.914C2.09654 15.914 1.92488 15.8772 1.85131 15.9079C1.76548 15.9385 1.76548 16.006 1.76548 16.006C1.76548 16.006 1.74096 16.0366 1.68578 16.0428C1.63061 16.055 1.59995 16.147 1.58769 16.1838C1.5693 16.2083 1.52638 16.2757 1.52638 16.2757L1.41603 16.4167C1.41603 16.4167 1.38538 16.4474 1.39764 16.478C1.40377 16.5087 1.37925 16.5761 1.36085 16.6007C1.34859 16.619 1.19532 16.852 1.1708 16.9011C1.14628 16.9562 1.02366 17.2873 1.00527 17.3241C0.986878 17.3609 0.950094 17.5325 0.925571 17.6122C0.907178 17.6981 0.58838 18.9365 0.58838 19.0346C0.58838 19.1326 0.551596 19.1878 0.539334 19.5066C0.520942 19.8254 0.50255 19.9542 0.490288 20.0461C0.484157 20.1381 0.361543 22.3329 0.373804 22.4678C0.392196 22.6088 0.373804 22.6823 0.386066 22.7682C0.392196 22.854 0.398327 22.9828 0.398327 23.1176C0.398327 23.2586 0.42285 25.5086 0.416719 25.5883C0.410589 25.6741 0.269582 25.7784 0.447373 25.8826C0.447373 25.8826 0.478027 25.8887 0.478027 25.9562C0.478027 26.0175 0.42285 26.0726 0.453504 26.0972C0.484158 26.1278 0.484157 26.1523 0.465765 26.183C0.441242 26.2198 0.428981 26.2566 0.478027 26.2811C0.520942 26.3179 0.490288 26.373 0.478027 26.4098C0.465765 26.4527 0.453504 26.4957 0.484158 26.5202C0.514811 26.5447 0.520942 26.7409 0.484158 26.8267C0.447373 26.9126 0.410589 27.0842 0.453504 27.1394C0.50255 27.1884 0.465765 27.213 0.441242 27.2314C0.416719 27.262 0.318628 27.3049 0.416719 27.4643C0.484158 27.5808 0.42285 27.7954 0.42285 27.7954C0.42285 27.7954 0.373804 27.8199 0.416719 27.8628C0.465765 27.8996 0.398327 27.9793 0.398327 28.0222C0.398327 28.059 0.416719 28.059 0.398327 28.0897C0.386066 28.1203 0.25732 28.1816 0.392196 28.3104C0.392196 28.3104 0.373804 28.4514 0.373804 28.4759C0.373804 28.5127 0.220536 28.6169 0.361543 28.623C0.361543 28.623 0.373804 28.715 0.33702 28.7763C0.306366 28.8376 0.263451 28.8621 0.306366 28.8805C0.306366 28.8805 0.373804 28.9234 0.324758 28.9909C0.275712 29.0583 0.263451 29.1196 0.306366 29.1441C0.33702 29.1687 0.294105 29.2177 0.294105 29.2177C0.294105 29.2177 0.226666 29.2974 0.324758 29.3403C0.324758 29.3403 0.33702 29.4139 0.324758 29.5181C0.306366 29.6162 0.232797 31.0324 0.226666 31.1305C0.220536 31.2286 0.110182 32.6019 0.116313 32.749C0.122444 32.8962 0.110182 32.9084 0.110182 32.9084C0.110182 32.9084 0.159228 32.9697 0.104052 33.0126L0.0856595 33.1353L0.0243521 34.1407C0.0243521 34.1407 0.0856595 34.2388 0.0550058 34.2878C0.0243521 34.343 -0.0246938 34.4104 0.0488751 34.4166L0.0550058 34.7538L0.0488751 34.8089C0.0488751 34.8089 -0.0676089 34.8825 0.0672673 34.9132L0.0550058 34.9683C0.0550058 34.9683 -0.0798704 35.048 0.0672673 35.0971C0.0672673 35.0971 0.0672673 35.2136 0.0243521 35.2258C-0.018563 35.2442 0.0672673 37.4022 0.0672673 37.4022C0.0672673 37.4022 0.238928 39.9526 0.453504 40.4247C0.453504 40.4247 0.453504 40.5167 0.50868 40.5228C0.50868 40.5228 0.533203 40.6454 0.539334 40.7067C0.545465 40.768 0.760041 41.6815 0.870394 41.9942V42.1229C0.870394 42.1229 0.845871 42.2026 0.943963 42.3252C0.943963 42.3252 0.999139 42.4785 0.999139 42.6011C0.999139 42.7237 1.02366 42.9015 1.08497 42.9751C1.14015 43.0425 1.1708 43.0916 1.18919 43.1958C1.20145 43.2939 1.14628 43.3123 1.2505 43.3429C1.2505 43.3429 1.28115 43.5759 1.28115 43.6985C1.28115 43.815 1.29341 43.9805 1.38538 44.0786C1.47734 44.1767 1.41603 44.3361 1.52638 44.4894C1.649 44.6426 1.65513 44.7285 1.71644 44.8572C1.77774 44.986 1.99232 45.4764 2.05976 45.5561C2.1272 45.642 2.1272 45.6971 2.1272 45.6971C2.1272 45.6971 2.13333 45.7646 2.17011 45.8014C2.20076 45.8381 2.36016 46.0466 2.39695 46.0895C2.43373 46.1385 2.40921 46.1999 2.48278 46.2489C2.55022 46.3041 2.47052 46.3899 2.56248 46.4022C2.56248 46.4022 2.56248 46.4635 2.61152 46.4696C2.65444 46.4819 2.67896 46.5003 2.67896 46.5003C2.67896 46.5003 2.7464 46.6167 2.76479 46.6351C2.77705 46.6658 2.73414 46.7761 2.85062 46.7823C2.85062 46.7823 2.93645 46.9907 2.96098 47.0214C2.9855 47.052 3.04068 47.1195 3.05907 47.144C3.08972 47.1685 3.07746 47.2666 3.11424 47.2666C3.15716 47.2666 3.15716 47.334 3.15716 47.334C3.15716 47.334 3.48209 47.9226 3.62923 48.0329C3.77023 48.1494 3.69053 48.1004 3.69053 48.1004C3.69053 48.1004 3.69666 48.2291 3.79476 48.2475C3.79476 48.2475 3.80702 48.2904 3.81315 48.315C3.81928 48.3334 3.96642 48.4928 3.96642 48.4928C3.96642 48.4928 4.02772 48.4928 4.02772 48.5908C4.02772 48.5908 4.35265 48.9955 4.44461 49.1242C4.54884 49.2591 5.57267 50.4669 5.86081 50.6446C5.86081 50.6446 5.92212 50.6998 5.92212 50.7427C5.92212 50.7918 6.04474 50.8347 6.04474 50.8347C6.04474 50.8347 6.11217 50.755 6.13057 50.8653C6.14283 50.9696 6.21027 51.0002 6.21027 51.0002L6.27157 51.0309C6.27157 51.0309 6.52293 51.2332 6.56585 51.2455C6.60876 51.2577 6.6762 51.2884 6.68233 51.3374C6.68846 51.3865 6.72525 51.3865 6.78043 51.4049C6.8356 51.4294 6.87852 51.5091 6.87852 51.5091C6.87852 51.5091 6.96435 51.5888 7.02566 51.5949C7.08696 51.6072 7.27701 51.7543 7.3138 51.785C7.35671 51.8156 7.37511 51.8095 7.38737 51.8401C7.3935 51.8708 7.3935 51.9137 7.41802 51.9137C7.44255 51.9137 7.61421 51.9811 7.64486 51.9995C7.67551 52.0118 7.90235 52.1467 7.94527 52.1957C7.98205 52.2509 8.07401 52.2448 8.1108 52.2693C8.14758 52.2877 8.1721 52.3061 8.20276 52.349C8.23341 52.3796 8.44799 52.5023 8.52155 52.539C8.60125 52.582 8.69935 52.6126 8.85261 52.6617C9.00588 52.7168 9.11624 52.7904 9.13463 52.8088C9.15915 52.8211 9.20207 52.8762 9.29403 52.8824C9.29403 52.8824 9.33081 52.913 9.37373 52.9498C9.41051 52.9743 9.527 52.9988 9.527 52.9988C9.527 52.9988 9.75996 53.0479 9.82127 53.1153C9.88871 53.1705 9.93162 53.2379 10.0113 53.2196C10.0849 53.2073 10.1523 53.1889 10.183 53.2379C10.2136 53.2809 10.3608 53.2809 10.3792 53.2809C10.4037 53.2809 10.4098 53.3299 10.4589 53.3483C10.5079 53.3606 10.5447 53.3422 10.5447 53.3422C10.5447 53.3422 10.6551 53.3912 10.7838 53.4157C10.9125 53.4403 10.9677 53.4403 10.98 53.4832C10.9922 53.52 11.0719 53.4954 11.121 53.5138C11.1578 53.52 11.6053 53.661 11.7708 53.6916C11.9241 53.7284 12.3839 53.8388 12.4943 53.8694C12.6046 53.8939 12.7947 53.8939 12.8376 53.9062C12.8805 53.9123 12.9786 53.9859 13.0522 54.0043C13.1319 54.0288 13.1319 53.9491 13.1625 53.9614C13.2054 53.9736 13.2177 53.9859 13.2729 54.0043C13.3281 54.0288 14.1802 54.0717 14.4684 54.0901C14.7565 54.1024 14.9037 54.1269 14.9588 54.1514C15.014 54.1698 14.9956 54.1821 15.0814 54.1821C15.1611 54.1821 15.4615 54.1943 15.4615 54.1943C15.4615 54.1943 15.4861 54.3108 15.6393 54.2127H15.6884C15.7436 54.2127 15.9827 54.2189 16.0133 54.225C16.044 54.2311 16.0808 54.274 16.185 54.2311H16.3076C16.3382 54.2311 17.0555 54.1943 17.1782 54.1882C17.3008 54.1821 18.4717 54.084 18.6495 54.0656C18.6495 54.0656 19.2749 54.0104 19.4711 53.9491C19.6672 53.8939 21.58 53.4035 22.4077 52.9866C22.4077 52.9866 22.4874 52.9314 22.5303 52.9559C22.5732 52.9866 22.7265 52.864 23.0024 52.7475C23.0024 52.7475 23.0637 52.7168 23.1434 52.7291C23.2169 52.7475 23.3089 52.6126 23.3212 52.5206C23.3395 52.4287 23.4499 52.5206 23.4928 52.5023C23.5419 52.49 23.7564 52.2754 23.7564 52.2754C23.7564 52.2754 23.8913 52.2141 23.971 52.1651C24.0446 52.1222 24.4553 51.785 24.535 51.693C24.535 51.693 24.7312 51.6194 24.7312 51.5275L26.5091 50.0193C26.5091 50.0193 26.5214 49.8967 26.6134 49.909C26.7053 49.9273 26.9383 49.6024 26.9812 49.6024C27.0241 49.6024 27.4104 49.3449 27.441 49.1487C27.441 49.1487 27.7046 48.8299 27.7782 48.7686C27.8579 48.7073 29.5806 46.5861 30.0282 45.7952C30.0282 45.7952 30.1937 45.5684 30.2244 45.4396C30.255 45.3232 30.6229 44.9124 30.6351 44.8634C30.6535 44.8204 30.6842 44.7407 30.7332 44.7101C30.7761 44.6794 31.5241 42.926 31.659 42.5582C31.8 42.1965 32.413 40.486 32.456 40.1979C32.505 39.9097 32.5357 39.9833 32.5479 39.971C32.5663 39.9526 32.8728 39.1434 32.9219 38.9901C32.9648 38.843 33.2836 37.3164 33.2836 37.3164C33.2836 37.3164 33.3143 37.2858 33.3633 37.2061C33.4062 37.1325 33.3633 36.9179 33.394 36.8566C33.4246 36.7953 33.4675 36.6727 33.4675 36.6727C33.4675 36.6727 33.4553 36.5378 33.4675 36.4765C33.4859 36.4152 33.7618 34.8457 33.7925 34.7722C33.8231 34.6925 33.8538 34.4656 33.8783 34.3246C33.9089 34.1897 34.191 31.952 34.2155 31.8662C34.2523 31.7988 34.2645 31.762 34.2768 31.67C34.2952 31.5842 34.3871 29.6898 34.4301 29.3832C34.473 29.0828 34.6017 28.1203 34.6324 27.967C34.663 27.8138 34.6692 27.8444 34.7059 27.7525C34.7121 27.7402 34.7059 27.7157 34.7059 27.6728C34.7059 27.6605 34.7427 27.6482 34.7427 27.6299C34.7427 27.6115 34.7121 27.5808 34.7182 27.5624C34.7243 27.4582 34.7366 27.3417 34.755 27.2988C34.7795 27.2191 34.8592 26.9739 34.8592 26.9739C34.8592 26.9739 34.8776 26.8145 34.8899 26.7041C34.9083 26.5999 35.0615 25.9562 35.1044 25.7661C35.1535 25.5883 35.1841 25.3921 35.2148 25.3308C35.2148 25.3308 35.2638 25.2879 35.2822 25.2205C35.2945 25.153 35.2332 25.1162 35.2577 25.0672C35.2884 25.0243 35.2884 24.9936 35.319 24.9323C35.3497 24.871 35.319 24.8588 35.3374 24.7791C35.4355 24.4112 35.46 24.4112 35.46 24.3376C35.46 24.2641 35.46 24.0802 35.4907 23.9759C35.5213 23.8594 35.5642 23.6694 35.6378 23.6081C35.7175 23.5468 35.6562 23.4977 35.6869 23.4058C35.7175 23.3138 35.7359 22.9398 35.7604 22.8785C35.7972 22.8172 35.8708 22.6946 35.8708 22.5659C35.8708 22.4494 35.8585 22.0693 35.8892 21.9773C35.9137 21.8853 35.9934 21.824 35.9934 21.7811C35.9934 21.7321 35.9566 21.6095 35.9934 21.5052C36.024 21.3949 36.1037 20.8002 36.1344 20.4201C36.1651 20.04 36.1773 19.5066 36.1467 19.243C36.116 18.9855 36.0854 18.82 36.0854 18.82C36.0854 18.82 36.0547 18.7525 36.0363 18.6974C36.0057 18.5686 35.9811 18.4092 35.9566 18.3602C35.9443 18.3111 35.7788 17.7655 35.7175 17.6735C35.6562 17.5816 35.4723 17.2199 35.4416 17.1402C35.411 17.0666 35.2577 16.944 35.2393 16.9011C35.2393 16.9011 35.2393 16.8214 35.2025 16.7907C35.2025 16.7907 35.1535 16.7723 35.129 16.7539C35.1044 16.7355 34.988 16.6374 34.9205 16.5945C34.8531 16.5455 34.7795 16.5455 34.6937 16.5332C34.6937 16.5332 34.4668 16.4596 34.3013 16.7601C34.3013 16.7601 34.24 16.9378 34.3442 17.5325C34.4546 18.1333 34.4362 18.1211 34.4362 18.1517C34.4362 18.1824 34.4362 18.1824 34.4301 18.1946C34.4178 18.213 34.3565 18.2866 34.4484 18.3786C34.4484 18.3786 34.4975 18.4092 34.4362 18.4583C34.381 18.5134 34.3933 18.538 34.3994 18.5748C34.4055 18.6115 34.3933 18.6545 34.3074 18.6974C34.2155 18.7342 34.2216 18.728 34.1174 18.6851C34.0193 18.6422 33.8844 18.4583 33.8108 18.3418C33.725 18.2253 33.7802 18.1946 33.7618 18.1149C33.7434 18.0291 33.676 17.9494 33.6392 17.9126C33.6024 17.882 33.5718 17.8636 33.5534 17.8023C33.5227 17.7348 33.2836 17.2628 33.2223 17.1463C33.1549 17.0298 33.1181 16.9624 33.1181 16.9133C33.1058 16.8581 33.069 16.852 33.0568 16.8336C33.0445 16.8091 32.7502 16.3493 32.7012 16.3064C32.6644 16.2573 32.5602 16.1286 32.5357 16.055C32.505 15.9814 32.456 15.9447 32.4314 15.9201C32.413 15.8895 31.9226 15.4113 31.8735 15.3745C31.8368 15.3439 31.8368 15.3316 31.8184 15.3193C31.8 15.3071 31.5118 15.0986 31.4566 15.0741C31.4076 15.0434 31.2482 15.0189 31.1624 15.0189C31.0827 15.0189 30.9049 15.0312 30.7884 15.1599C30.7884 15.1599 30.7332 15.2274 30.7516 15.4542C30.7516 15.4542 30.7271 15.5094 30.7455 15.5584C30.7761 15.6075 30.8313 15.7914 30.8558 15.8404C30.8865 15.8834 30.9417 15.9753 30.9601 16.0182C30.9723 16.0611 31.0091 16.2083 31.0091 16.2941C31.0152 16.3738 31.0275 16.3738 31.0398 16.3861C31.052 16.3922 31.144 16.4842 31.2053 16.6068C31.2727 16.7355 31.3463 17.0298 31.3831 17.1156C31.4199 17.2015 31.5425 17.3977 31.5793 17.4896C31.6099 17.5816 31.7325 17.8942 31.7387 17.9923C31.7387 18.0966 31.7816 18.3663 31.7754 18.4337C31.7632 18.5073 31.7816 18.587 31.6222 18.6177C31.4689 18.6483 31.3953 18.5931 31.3647 18.5686C31.334 18.5441 30.9417 18.1946 30.8987 18.1333C30.8558 18.0659 30.4635 17.6919 30.4206 17.649C30.3776 17.6061 30.1815 17.367 30.1079 17.2873C30.0282 17.2199 29.6971 16.9011 29.6236 16.8336C29.5561 16.7601 29.3477 16.5087 29.3231 16.4719C29.2986 16.429 29.3231 16.429 29.176 16.3432C29.0227 16.2512 29.0841 16.2205 29.035 16.1715C28.9798 16.1163 28.8082 15.9201 28.6733 15.8466C28.5384 15.773 28.379 15.6443 28.3422 15.6259C28.3054 15.6013 28.3177 15.5462 28.2932 15.5339C28.2748 15.5216 28.2319 15.5216 28.2196 15.5033C28.1951 15.4849 28.1767 15.4481 28.1522 15.4236C28.1338 15.399 28.0725 15.3745 28.0541 15.3684C28.0296 15.3622 27.9744 15.3684 27.9437 15.3561C27.9131 15.3377 27.7905 15.2335 27.7782 15.2151C27.7659 15.2028 27.7169 15.1906 27.6862 15.1783C27.6495 15.1661 27.5759 15.0864 27.5023 15.0864C27.4226 15.0741 27.3 15.0373 27.1467 15.1048C26.9935 15.1722 26.9873 15.1906 26.9873 15.1906C26.9873 15.1906 26.926 15.2151 26.9138 15.2151C26.8954 15.2212 26.9015 15.2948 26.8831 15.3193C26.8709 15.3439 26.8095 15.3806 26.8525 15.4297C26.8954 15.4849 26.8402 15.5094 26.8157 15.5216C26.7973 15.54 26.7298 15.6136 26.7421 15.6627C26.7482 15.7117 26.8157 15.7853 26.8709 15.8527C26.9138 15.9201 26.8709 15.9201 26.9015 15.9692C26.9444 16.0121 27.2939 16.5026 27.3184 16.5639C27.3552 16.619 27.4901 16.8152 27.5636 16.9011C27.6372 16.9869 27.7843 17.1647 27.8027 17.1769C27.8272 17.1953 27.8395 17.2444 27.8702 17.2812C27.8947 17.3057 27.9437 17.3057 27.9683 17.3547C27.9928 17.3915 27.9928 17.4528 28.0112 17.4835C28.0357 17.5264 28.0541 17.508 28.097 17.5264C28.146 17.5387 28.2012 17.5816 28.2319 17.6306C28.2748 17.6797 28.4894 17.9678 28.5445 18.0475C28.5936 18.1272 28.661 18.2621 28.6856 18.2989C28.7101 18.3418 28.7898 18.3173 28.7898 18.4215C28.7898 18.4215 28.845 18.5073 28.8756 18.5318C28.9063 18.5502 28.943 18.6299 28.9676 18.6545C28.9982 18.679 29.1147 18.8506 29.1637 18.8997C29.2067 18.9549 29.2312 19.0039 29.2557 19.0775C29.2802 19.151 29.3477 19.3104 29.3661 19.3656C29.3845 19.4208 29.4028 19.6354 29.3845 19.7089C29.3722 19.7764 29.2864 19.8622 29.2189 19.8683C29.1392 19.8745 29.0227 19.7886 28.9921 19.7825C28.9921 19.7825 28.9124 19.8009 28.8879 19.7886C28.8572 19.7764 28.8572 19.6967 28.8266 19.6722C28.802 19.6476 28.7162 19.6599 28.6733 19.6476C28.6365 19.6354 28.5507 19.5373 28.5262 19.5128C28.5016 19.4882 28.2748 19.3166 28.2564 19.2798C28.2319 19.243 28.2257 19.2123 28.189 19.1756C28.1522 19.1449 28.1522 19.0897 28.1154 19.0713C28.0847 19.0468 28.0296 19.0407 27.9989 19.0223C27.9805 18.9978 27.9437 18.961 27.9192 18.9119C27.8947 18.869 27.7537 18.7219 27.7292 18.7035C27.7046 18.6851 27.5759 18.5502 27.5514 18.5257C27.5207 18.5012 27.251 18.2621 27.2142 18.2253C27.1835 18.1946 27.2019 18.1824 27.1713 18.1579C27.1406 18.1333 27.11 18.1395 27.0854 18.1211C27.0609 18.1149 26.9751 18.023 26.9506 17.9985C26.9383 17.9739 26.926 17.931 26.8954 17.9126C26.8647 17.8942 26.8463 17.8881 26.7973 17.8881C26.7482 17.8881 26.6931 17.8268 26.6747 17.8084C26.6563 17.79 26.5398 17.6919 26.5214 17.6735C26.503 17.6613 26.503 17.6245 26.4785 17.5877C26.454 17.5509 26.3743 17.5387 26.3743 17.5387C26.3743 17.5387 26.0616 17.3793 26.0309 17.3547C26.0309 17.3547 25.9635 17.2996 25.939 17.2812C25.9145 17.2628 25.8838 17.2628 25.8593 17.2505C25.8286 17.2444 25.6754 17.1279 25.6386 17.0972C25.5957 17.0727 25.516 17.0666 25.4792 17.0605C25.4424 17.0421 25.3136 17.0421 25.2769 17.0175C25.2462 16.9992 25.1175 16.9992 25.0316 17.0666C24.9335 17.134 24.8845 17.1892 24.8661 17.226C24.8477 17.2689 24.8171 17.3547 24.8048 17.367C24.7925 17.3793 24.7435 17.459 24.7741 17.5019C24.8048 17.5448 24.7987 17.5938 24.8048 17.6306C24.8048 17.6735 24.8354 17.882 24.8477 17.9372C24.8477 17.9923 24.8845 18.023 24.8845 18.0414C24.8845 18.0536 24.8968 18.1211 24.9335 18.1579C24.9581 18.1946 25.1665 18.4889 25.2217 18.5502C25.2769 18.6177 25.4056 18.8139 25.473 18.8813C25.5344 18.9549 25.5834 18.9916 25.5773 19.01C25.5711 19.0284 25.6079 19.0959 25.6386 19.1081C25.6631 19.1204 25.6876 19.1572 25.706 19.1817C25.7183 19.2062 25.7428 19.194 25.7735 19.2246C25.8041 19.2491 25.8409 19.3534 25.8715 19.3901C25.9022 19.4208 25.939 19.4698 25.9512 19.5005C25.9635 19.5311 26.1045 19.6476 26.1352 19.6844C26.1719 19.7212 26.1658 19.8009 26.1842 19.8316C26.1965 19.8622 26.221 19.9051 26.2762 19.9174C26.3313 19.9419 26.3497 19.9603 26.3743 19.9848C26.4049 20.0155 26.4049 20.0829 26.4294 20.1074C26.4478 20.132 26.5521 20.2914 26.6318 20.3588C26.7115 20.4262 26.8831 20.6776 26.9383 20.7389C26.9935 20.8063 26.9506 20.8309 26.9873 20.8554C27.0241 20.8738 27.0241 20.8738 27.0609 20.9106C27.0916 20.9412 27.1958 21.1067 27.2326 21.2232C27.2755 21.3397 27.2632 21.5175 27.251 21.5543C27.2448 21.5911 27.1283 21.7076 27.1038 21.7321C27.0793 21.7627 27.0241 21.7811 26.9751 21.7811C26.926 21.7873 26.8157 21.7995 26.785 21.7873C26.7544 21.775 26.736 21.7627 26.7053 21.7443C26.6747 21.7321 26.4969 21.7198 26.454 21.7014C26.411 21.6892 26.0126 21.5175 25.9696 21.493C25.9267 21.4746 25.8286 21.4685 25.7612 21.4439C25.6876 21.4194 25.3872 21.2478 25.3259 21.2294C25.2646 21.211 25.0071 21.1067 24.8784 21.0884C24.7496 21.07 24.6086 21.0761 24.5534 21.0884C24.486 21.1067 24.394 21.1681 24.3695 21.1926C24.345 21.2171 24.2837 21.3029 24.2775 21.3213C24.2592 21.3336 24.2285 21.3458 24.204 21.352C24.1795 21.352 24.1488 21.4194 24.1427 21.4746C24.1427 21.5236 24.112 21.5972 24.112 21.6401C24.1059 21.683 24.1243 21.8363 24.1488 21.8731C24.1795 21.9099 24.2101 22.0264 24.2101 22.0631C24.2101 22.0999 24.2224 22.1919 24.2469 22.2164C24.2592 22.2409 24.2959 22.29 24.3266 22.3206C24.3573 22.3513 24.5228 22.6149 24.5718 22.6701C24.6147 22.7191 24.6147 22.762 24.627 22.7804C24.6393 22.805 24.7803 22.9521 24.8477 23.0134C24.9213 23.0686 25.2217 23.369 25.2769 23.4426C25.3382 23.5161 25.4056 23.5897 25.4363 23.6265C25.473 23.6694 25.8409 23.9943 25.9512 24.0924C26.0616 24.1844 26.4785 24.54 26.5643 24.6258C26.6563 24.7055 26.9015 25.0182 26.9812 25.104C27.0609 25.1898 27.2694 25.5515 27.3429 25.668C27.4104 25.7784 27.4226 25.8397 27.4533 25.8826C27.4778 25.9255 27.5085 25.9378 27.533 25.9746C27.5514 26.0175 27.7598 26.4405 27.7905 26.5202C27.8211 26.5999 27.8824 26.7532 27.8824 26.7838C27.8886 26.8206 27.9499 26.8942 27.9621 26.9371C27.9805 26.98 28.1828 27.4521 28.2012 27.5011C28.2257 27.5563 28.2441 27.6299 28.2503 27.6605C28.2564 27.6912 28.2871 27.7463 28.2993 27.7586C28.3054 27.777 28.4403 28.0774 28.471 28.2061C28.5078 28.3349 28.5078 28.4268 28.5262 28.4698C28.5384 28.5065 28.5752 28.6108 28.5813 28.6721C28.5936 28.7334 28.7469 29.2545 28.753 29.3832C28.7653 29.5181 28.8327 30.0086 28.845 30.0699C28.8572 30.1251 28.8449 30.2538 28.8572 30.2906C28.8633 30.3335 28.894 30.4132 28.9001 30.4929C28.9001 30.5726 28.9369 31.0447 28.943 31.1182C28.943 31.1979 28.9737 31.8294 28.9676 31.8785C28.9676 31.9275 28.9492 31.9398 28.943 31.952C28.943 31.9643 28.8879 31.9949 28.9492 32.0501C28.9492 32.0501 28.9676 32.1237 28.9676 32.1543C28.9676 32.185 28.9492 32.7184 28.9492 32.7858C28.943 32.8594 28.9185 33.2211 28.9124 33.3253C28.9063 33.4234 28.8756 33.6809 28.8695 33.7299C28.8633 33.7851 28.845 33.779 28.8388 33.8771C28.8388 33.969 28.8266 34.1162 28.8204 34.1652C28.8143 34.2143 28.7775 34.3675 28.7653 34.4166C28.7653 34.4656 28.7653 34.5944 28.7469 34.6373C28.7346 34.6741 28.6733 34.7354 28.6672 34.7599C28.6549 34.7844 28.6426 34.8396 28.6242 34.8641C28.6059 34.8886 28.5997 34.9561 28.6426 34.9867C28.6856 35.0235 28.6733 35.0726 28.6426 35.0787C28.6181 35.0971 28.5752 35.1768 28.6181 35.2197C28.6549 35.2688 28.6426 35.2994 28.6304 35.3117C28.6181 35.3239 28.5629 35.3546 28.6059 35.4098C28.6672 35.4649 28.6304 35.5446 28.6181 35.5569C28.6059 35.5753 28.5629 35.5569 28.5507 35.5875C28.5384 35.6182 28.5813 35.6489 28.6059 35.6918C28.6304 35.7347 28.6059 35.7592 28.5875 35.7899C28.5629 35.8144 28.4832 35.845 28.5078 35.8573C28.5262 35.8757 28.5384 35.8818 28.5384 35.9186C28.5384 35.9677 28.5262 35.9922 28.5078 36.0044C28.4955 36.0167 28.4648 36.029 28.4648 36.0596C28.4648 36.0964 28.4648 36.1393 28.4587 36.1577C28.4526 36.1822 28.4771 36.219 28.471 36.2374C28.471 36.2681 28.4648 36.2803 28.4403 36.2865C28.4219 36.2926 28.4035 36.2926 28.3851 36.3294C28.3668 36.3662 28.3668 36.4581 28.3606 36.501C28.3484 36.5378 28.3484 36.5501 28.33 36.5623C28.3177 36.5685 28.3054 36.5746 28.2993 36.593C28.2871 36.6298 28.2932 36.6666 28.2871 36.6788C28.2748 36.6911 28.2564 36.7463 28.2687 36.8014C28.2748 36.8627 28.2871 36.875 28.3177 36.9057C28.3484 36.9302 28.3361 36.9915 28.3238 36.9976C28.3054 37.0099 28.2564 37.0344 28.2503 37.0589C28.2319 37.0773 28.2564 37.1999 28.238 37.2183C28.2319 37.2428 28.1767 37.2858 28.1767 37.298C28.1767 37.3164 28.1767 37.3225 28.1951 37.3409C28.2074 37.3532 28.1951 37.4145 28.189 37.4268C28.1828 37.439 28.1644 37.4697 28.1522 37.4819C28.1338 37.4881 28.0847 37.5126 28.1215 37.5371C28.1644 37.5616 28.1522 37.5739 28.146 37.5984C28.1338 37.6168 28.1031 37.7885 28.0847 37.8314C28.0725 37.8743 27.9499 38.2973 27.9008 38.4077C27.8579 38.5242 27.6556 39.0269 27.6188 39.1066C27.582 39.1924 27.4533 39.5051 27.4349 39.5541C27.4104 39.6032 27.3429 39.7074 27.3245 39.7258C27.3123 39.7503 27.0916 40.1856 27.0609 40.2408C27.0364 40.296 26.8709 40.6454 26.8463 40.6761C26.8279 40.7128 26.8034 40.7925 26.7973 40.8477C26.7912 40.8906 26.7544 40.9581 26.7298 41.001C26.7053 41.05 26.5521 41.2401 26.5398 41.283C26.5214 41.3259 26.4724 41.3934 26.4662 41.424C26.454 41.4608 26.4662 41.4976 26.4478 41.5221C26.4294 41.5528 26.4233 41.5528 26.4049 41.5895C26.3865 41.6202 26.3559 41.6999 26.3497 41.7428C26.3375 41.7857 26.2026 41.9574 26.1842 41.988C26.1597 42.0248 26.1597 42.0677 26.1474 42.0923C26.1352 42.1168 26.0923 42.1536 26.08 42.1781C26.0677 42.2026 26.0616 42.2333 26.0493 42.2639C26.0309 42.2946 25.9635 42.3865 25.9451 42.4172C25.9267 42.454 25.9206 42.4908 25.9022 42.5398C25.8777 42.5827 25.5527 43.0854 25.5037 43.1651C25.4547 43.2448 25.332 43.4104 25.3014 43.4533C25.3014 43.4533 25.0929 43.7108 25.0623 43.766C25.0316 43.8211 24.8661 44.0051 24.8538 44.0725C24.8477 44.1461 24.8109 44.1644 24.7864 44.2012C24.7619 44.2319 24.3756 44.5629 24.3266 44.6243C24.3266 44.6243 24.2101 44.753 24.1917 44.7591C24.1672 44.7714 24.0998 44.8143 24.0814 44.8327C24.0568 44.8572 22.9227 45.7891 22.8491 45.8381C22.7878 45.8933 22.236 46.3225 22.187 46.3531C22.1441 46.3899 22.0889 46.439 22.0276 46.4819C21.9663 46.5248 21.7701 46.6351 21.6904 46.6842C21.6229 46.7271 21.1631 46.9478 21.0773 46.9907C20.9853 47.0275 20.3294 47.2359 20.2313 47.2666C20.1454 47.3034 19.9922 47.3463 19.9309 47.3524C19.8757 47.3586 19.8328 47.3647 19.7837 47.3647C19.7285 47.3647 19.6366 47.4137 19.5691 47.4383C19.4956 47.4567 18.858 47.5977 18.7231 47.6099C18.5821 47.6222 18.11 47.6958 18.0242 47.7019C17.9384 47.708 15.7987 47.7448 15.6884 47.7387C15.578 47.7387 15.2592 47.7264 15.2102 47.7141C15.1611 47.7019 15.1244 47.6712 15.0937 47.6651C15.0692 47.659 14.3335 47.6467 14.2906 47.6344C14.2415 47.6283 13.7143 47.5609 13.6285 47.5425C13.5426 47.5118 13.3403 47.4812 13.279 47.475C13.2177 47.4567 12.9725 47.3954 12.8928 47.3892C12.8131 47.3892 12.5494 47.3586 12.5127 47.3402C12.4697 47.3218 12.4636 47.2973 12.4207 47.285C12.3778 47.2789 12.2674 47.2482 12.2061 47.2298C12.1448 47.2114 11.8076 47.0704 11.7402 47.0336C11.6728 47.003 11.4337 46.8558 11.3723 46.8436C11.3172 46.8252 11.2252 46.7823 11.1823 46.7578C11.1332 46.7271 10.8328 46.5861 10.7838 46.5677C10.7286 46.5493 10.6612 46.5064 10.6183 46.4819C10.5754 46.4512 10.4098 46.3838 10.3546 46.3654C10.3056 46.3409 10.1646 46.2612 10.1523 46.2366C10.1401 46.2305 10.1217 46.1753 10.0972 46.1692C10.0788 46.1631 9.9868 46.1324 9.9868 46.1324C9.9868 46.1324 9.94389 46.065 9.88258 46.0405C9.82127 46.0221 9.77223 45.973 9.7477 45.9485C9.72318 45.9301 9.14689 45.4948 9.03041 45.3967C8.92005 45.2986 8.34989 44.7898 8.2702 44.6856C8.20276 44.5813 7.81039 44.097 7.76134 44.0234C7.71843 43.9499 7.69391 43.8886 7.69391 43.8702C7.69391 43.8518 7.66938 43.7966 7.6326 43.7598C7.59581 43.723 7.35058 43.2939 7.32606 43.2632C7.30767 43.2326 7.30767 43.1406 7.28928 43.1284C7.27088 43.1222 7.21571 43.0425 7.18505 43.018C7.1544 42.9873 7.12988 42.9138 7.12375 42.877C7.11762 42.8341 7.06857 42.8218 7.06857 42.7605C7.06857 42.7053 7.05018 42.6379 6.995 42.6072C6.995 42.6072 6.93982 42.5459 6.93982 42.5091C6.93982 42.4846 6.90917 42.4601 6.88465 42.4356C6.86626 42.4111 6.80495 42.3375 6.80495 42.2946C6.80495 42.2517 6.76816 42.1781 6.74364 42.1107C6.71299 42.0432 6.65781 41.9635 6.62103 41.9267C6.59037 41.8838 6.54746 41.8348 6.54746 41.7919C6.54746 41.7489 6.54746 41.6447 6.52907 41.6079C6.52293 41.5773 6.48002 41.4976 6.46776 41.4608C6.4555 41.4118 6.2164 40.86 6.17348 40.7006C6.12444 40.5412 5.84855 39.6032 5.82403 39.4928C5.79951 39.3702 5.68302 38.7387 5.68302 38.702C5.68302 38.659 5.65237 38.5242 5.6585 38.4935C5.66463 38.4629 5.66463 38.2606 5.64624 38.2115C5.62785 38.1686 5.60945 38.0705 5.60945 38.0398C5.60945 38.0153 5.5788 37.8682 5.56041 37.8253C5.54815 37.7762 5.51136 37.7088 5.50523 37.672C5.4991 37.6413 5.48071 37.4022 5.48071 37.4022C5.48071 37.4022 5.52362 37.3839 5.51749 37.3655C5.51136 37.3532 5.48071 37.3225 5.48071 37.3225C5.48071 37.3225 5.46232 37.2367 5.46232 37.1938C5.46232 37.157 5.4194 36.7953 5.41327 36.734C5.40714 36.6666 5.40714 35.9983 5.40714 35.9677C5.40714 35.9309 5.39488 35.9247 5.4194 35.9125C5.44392 35.9063 5.43779 35.8021 5.4194 35.7531C5.40101 35.704 5.37649 35.6059 5.37649 35.5508C5.38262 35.5017 5.37649 35.281 5.37649 35.2442C5.37649 35.2136 5.35809 34.3553 5.35809 34.2449C5.37036 34.1346 5.40101 33.6993 5.40101 33.6809C5.40101 33.6625 5.40714 33.6441 5.43166 33.6257C5.45005 33.6135 5.40714 33.6318 5.40714 33.5889C5.40714 33.546 5.43166 33.1966 5.44392 33.1046C5.45006 33.0249 5.54815 32.5283 5.56041 32.4241C5.5788 32.3199 5.59719 32.1605 5.62785 32.1176C5.65237 32.0746 5.68302 32.1175 5.68302 31.9459C5.68302 31.9459 5.74433 31.8907 5.73207 31.8294C5.71981 31.7681 5.76272 31.7191 5.76272 31.7191C5.76272 31.7191 5.78725 31.7007 5.80564 31.6394C5.83016 31.5842 5.80564 31.4186 5.82403 31.3819C5.84242 31.3389 6.11217 30.3764 6.17348 30.2109C6.22866 30.0515 6.41258 29.6591 6.4555 29.5304C6.49228 29.4078 6.48615 29.3526 6.51067 29.3097C6.54746 29.2729 6.55972 29.2606 6.5965 29.2361C6.63329 29.2177 6.59037 29.1625 6.60263 29.138C6.62103 29.1135 6.65781 29.0215 6.70073 28.9909C6.73751 28.9541 6.70686 28.9418 6.70073 28.9173C6.70073 28.8867 6.76203 28.7518 6.76203 28.7518C6.76203 28.7518 6.79882 28.7579 6.81108 28.6721C6.8356 28.5924 6.995 28.1448 7.02566 28.0958C7.05018 28.0529 7.24636 27.6299 7.32606 27.5256C7.40576 27.4214 7.49159 27.2375 7.52838 27.1823C7.57129 27.121 7.70617 26.8696 7.76134 26.7961C7.81039 26.7225 7.98818 26.4589 8.08014 26.3792C8.1721 26.2995 8.30698 26.1278 8.36216 26.0788C8.41733 26.0359 8.52155 25.9439 8.56447 25.9132C8.60125 25.8887 8.74226 25.7416 8.82809 25.7048C8.91392 25.6741 9.07332 25.4718 9.07332 25.4718C9.07332 25.4718 9.2082 25.3124 9.25724 25.3002C9.30016 25.2879 9.40438 25.3308 9.37986 25.2205C9.37986 25.2205 9.3676 25.1837 9.40438 25.1776C9.4473 25.1653 9.53926 25.0549 9.57604 25.0549C9.61896 25.0549 9.668 25.0488 9.6864 25.0243C9.71092 24.9936 9.59443 24.9507 9.70479 24.9201C9.81514 24.8894 9.95002 24.7791 9.95002 24.7791C9.95002 24.7791 9.92549 24.6871 9.96228 24.6748C9.99906 24.6748 10.0726 24.6564 10.1278 24.6564C10.183 24.6564 10.2259 24.6748 10.2382 24.6381C10.2504 24.5951 10.183 24.5154 10.2627 24.5216C10.3424 24.5338 10.3853 24.5154 10.4343 24.4112C10.4773 24.307 10.5018 24.3744 10.5324 24.3438C10.5692 24.307 10.5876 24.2273 10.6428 24.2028C10.6918 24.1782 10.7409 24.1415 10.7961 24.1415C10.8574 24.1415 10.8942 24.1415 10.9187 24.0372C10.9187 24.0372 10.9555 24.0372 10.9861 24.025C11.0106 24.0188 11.0168 24.0188 11.0413 23.9514C11.0597 23.8901 11.0965 23.8594 11.1516 23.8288C11.2068 23.8043 11.6911 23.4303 11.7831 23.3751C11.8689 23.3138 12.1264 23.0992 12.1632 23.0931C12.1939 23.087 12.2184 23.0747 12.2552 23.0625C12.2858 23.0441 12.3349 22.9705 12.3655 22.9705C12.4023 22.9705 12.4452 22.946 12.4452 22.946C12.4452 22.946 12.4697 22.8969 12.5065 22.8847C12.5372 22.8847 12.574 22.8969 12.5862 22.8724C12.5985 22.8479 12.5924 22.7804 12.6353 22.762C12.6782 22.7314 12.764 22.6517 12.7947 22.6456C12.8315 22.6456 12.8499 22.6456 12.856 22.621C12.8621 22.5965 12.8499 22.5291 12.8621 22.5046C12.8744 22.48 12.9847 22.3697 13.0215 22.3513C13.0522 22.3268 13.0767 22.3022 13.0828 22.2777C13.089 22.2532 13.0828 22.2041 13.1073 22.1674C13.1319 22.1306 13.187 22.0325 13.1993 21.9099C13.2054 21.7873 13.187 21.6401 13.1441 21.5604C13.1012 21.4807 12.997 21.3765 12.8744 21.352C12.7518 21.3275 12.6537 21.3091 12.6414 21.3029C12.623 21.2968 12.6108 21.2784 12.5678 21.2845C12.5188 21.2845 12.5065 21.2968 12.4636 21.3091C12.4207 21.3213 12.2858 21.3581 12.1939 21.3765C12.1019 21.3888 12.0161 21.4255 11.9793 21.4317C11.9486 21.4317 11.9241 21.4255 11.8812 21.4562C11.8444 21.493 11.8015 21.5359 11.7831 21.542C11.7586 21.5543 11.6728 21.5482 11.6176 21.5604C11.5685 21.5727 11.5501 21.5727 11.5195 21.6033C11.4888 21.6279 11.452 21.6401 11.4275 21.6463C11.3969 21.6524 11.2252 21.6585 11.1639 21.6708C11.1149 21.683 11.0535 21.726 11.0045 21.7321C11.0045 21.7321 10.8696 21.7566 10.8267 21.7689C10.7838 21.775 10.6918 21.824 10.6367 21.8302C10.5754 21.8302 10.514 21.8547 10.373 21.7873C10.232 21.726 10.1646 21.6953 10.1523 21.6646C10.1339 21.6279 10.1155 21.4378 10.1155 21.3888C10.1278 21.3336 10.1278 21.3458 10.1155 21.3275C10.0972 21.3029 10.091 21.2784 10.1155 21.2478C10.1339 21.211 10.2014 21.1251 10.2382 21.0577C10.2688 20.9841 10.3424 20.8983 10.3792 20.8493C10.416 20.8002 10.416 20.7389 10.5018 20.6776C10.5937 20.6163 10.5508 20.555 10.5508 20.555C10.5508 20.555 10.5692 20.5059 10.5999 20.4753C10.6183 20.4446 10.8574 20.0829 10.9309 19.9848C11.0045 19.8867 11.1823 19.6476 11.2191 19.6047C11.2559 19.5557 11.2191 19.5189 11.2559 19.4882C11.2926 19.4453 11.3417 19.384 11.3601 19.3595C11.3723 19.335 11.3662 19.2859 11.3907 19.2553C11.4153 19.2185 11.4153 19.2185 11.4888 19.151C11.5685 19.0897 11.6605 18.9426 11.7034 18.8568C11.7525 18.7771 11.8383 18.6299 11.8812 18.5502C11.9241 18.4644 11.9302 18.4337 11.9364 18.3602C11.9486 18.2866 11.9486 18.2866 11.967 18.256C11.9854 18.2253 11.9732 18.1701 11.967 18.1272C11.9609 18.0966 11.9609 18.0046 11.9057 17.9617C11.8505 17.9126 11.7831 17.8452 11.6728 17.8145C11.5624 17.7778 11.4214 17.7655 11.2988 17.7716C11.1762 17.7839 11.1455 17.8268 11.1026 17.8575C11.0535 17.8881 10.9003 18.0046 10.8574 18.0352C10.8145 18.0659 10.5324 18.3295 10.4834 18.3602C10.4405 18.397 10.3976 18.4154 10.3792 18.446C10.3669 18.4767 10.3608 18.5012 10.3485 18.5196C10.3363 18.538 10.0236 18.7771 9.95002 18.8445C9.87645 18.9119 9.68026 19.0591 9.63735 19.0897C9.5883 19.1204 9.57604 19.1204 9.527 19.151C9.47182 19.1878 9.40438 19.3104 9.37986 19.335C9.35534 19.3534 9.30629 19.3595 9.27564 19.3595C9.25111 19.3534 9.22659 19.3227 9.23272 19.384C9.23272 19.4453 9.12237 19.5128 9.10398 19.5311C9.08558 19.5495 8.69935 19.8193 8.66256 19.8377C8.63191 19.8561 8.60125 19.8806 8.54608 19.8867C8.4909 19.8867 8.35603 19.8867 8.32537 19.8745C8.29472 19.8561 8.24567 19.7396 8.23954 19.8193C8.23954 19.8193 8.2518 19.8377 8.20889 19.8438C8.1721 19.8438 8.12306 19.8316 8.09853 19.807C8.07401 19.7825 8.0311 19.7335 8.00657 19.6599C7.98818 19.5802 7.99431 19.4882 8.02497 19.4024C8.05562 19.3227 8.06175 19.2737 8.08627 19.2123C8.11693 19.1633 8.20276 19.0223 8.25793 18.9426C8.31311 18.8568 8.37442 18.728 8.39281 18.7035C8.41733 18.679 8.41733 18.6299 8.42959 18.6054C8.44186 18.5748 8.48477 18.5502 8.53382 18.4889C8.57673 18.4276 8.69935 18.2314 8.73 18.1701C8.76678 18.1149 8.78518 18.0046 8.83422 17.9801C8.88327 17.9555 8.88327 17.931 8.90166 17.8942C8.92005 17.8513 9.0488 17.649 9.09171 17.5938C9.1285 17.5325 9.15302 17.459 9.18981 17.3915C9.22046 17.3241 9.27564 17.1892 9.33081 17.1156C9.39212 17.0298 9.527 16.8152 9.56378 16.7846C9.61283 16.7478 9.62509 16.6865 9.63735 16.6681C9.64961 16.6436 9.64348 16.5516 9.668 16.5393C9.69253 16.5332 9.70479 16.478 9.71092 16.4413C9.71705 16.4045 9.69253 16.2757 9.71705 16.2512C9.74157 16.2205 9.78449 16.1899 9.79062 16.147C9.79675 16.1041 9.79675 15.9876 9.77836 15.9385C9.75383 15.8834 9.67413 15.7424 9.62509 15.6933C9.56991 15.6504 9.48408 15.5216 9.31242 15.4971C9.14076 15.4726 9.06106 15.4481 9.06106 15.4481C9.06106 15.4481 8.98136 15.4297 8.92618 15.4603C8.87101 15.4971 8.83422 15.5094 8.79744 15.5216C8.76065 15.5278 8.69935 15.5462 8.66869 15.5768C8.63191 15.6075 8.38055 15.8711 8.34989 15.914C8.31924 15.9447 8.27019 16.006 8.22115 16.0857C8.1721 16.1715 7.74908 16.6497 7.71843 16.6742C7.68777 16.7049 7.65712 16.7355 7.62647 16.8091C7.60194 16.8949 7.62034 16.8704 7.58968 16.9011C7.55903 16.9378 7.50385 16.9256 7.46094 16.9992C7.41802 17.0666 7.33219 17.226 7.29541 17.2566C7.29541 17.2566 7.02566 17.5203 6.995 17.5632C6.95822 17.6061 6.95209 17.649 6.93982 17.6797C6.90917 17.7103 6.71912 17.8942 6.68846 17.9494C6.65781 17.9985 6.66394 18.0414 6.63942 18.072C6.6149 18.1027 6.31449 18.4644 6.25318 18.5318C6.19801 18.6054 6.05087 18.7464 5.98343 18.7648C5.92212 18.7893 5.82403 18.8016 5.74433 18.6974C5.66463 18.6054 5.61558 18.4951 5.62172 18.4092C5.62172 18.3295 5.65237 18.1149 5.68302 17.9923C5.71368 17.8697 5.87921 17.3609 5.91599 17.2812C5.95278 17.1953 6.2164 16.619 6.25931 16.5332C6.30223 16.4413 6.35127 16.3677 6.3758 16.3064C6.40032 16.2512 6.41871 16.1776 6.4371 16.1102C6.46163 16.0489 6.52907 15.9201 6.54746 15.9017C6.55972 15.8834 6.60263 15.9079 6.6149 15.8098C6.63942 15.7178 6.72525 15.5891 6.72525 15.5891C6.72525 15.5891 6.79882 15.4665 6.82334 15.4297C6.84173 15.3868 6.87852 15.3009 6.85399 15.2458C6.8356 15.1906 6.8356 15.1661 6.85399 15.1293C6.86626 15.0986 6.85399 15.0251 6.76816 14.9454C6.68846 14.8657 6.65168 14.7982 6.40032 14.7982C6.14283 14.8043 6.12444 14.8595 6.08152 14.8595C6.04474 14.8595 6.00795 14.9024 5.98956 14.9392C5.9773 14.976 5.87921 15.0496 5.82403 15.0925C5.76885 15.1354 5.43779 15.4481 5.39488 15.4971C5.35196 15.54 5.16191 15.7362 5.13126 15.7669C5.11286 15.7914 5.09447 15.8282 5.07608 15.8588C5.05156 15.8834 4.71437 16.2512 4.67758 16.3064C4.6408 16.3677 4.62854 16.429 4.60401 16.4658C4.57949 16.4964 4.35265 16.8275 4.31587 16.8827C4.27908 16.9378 4.1626 17.0911 4.15034 17.134C4.13195 17.1708 4.13195 17.1708 4.12582 17.2076C4.11968 17.2505 4.09516 17.275 4.06451 17.3179C4.03999 17.3609 3.83767 17.6981 3.81315 17.741C3.78863 17.7778 3.77636 17.8084 3.75184 17.8207C3.73345 17.8329 3.70893 17.8697 3.69666 17.9126C3.6844 17.9433 3.47596 18.2682 3.43917 18.3111C3.40239 18.3602 3.23686 18.5196 3.16329 18.5318C3.08972 18.5441 2.9058 18.4951 2.84449 18.4644C2.78318 18.4399 2.64218 18.2927 2.61152 18.2376C2.56861 18.1824 2.51343 18.0782 2.48278 18.0475C2.45826 18.0169 2.45212 17.9862 2.46439 17.931C2.47052 17.882 2.47665 17.8268 2.45212 17.7716C2.43373 17.7164 2.43373 17.6 2.43373 17.5448C2.43373 17.4896 2.45212 17.1524 2.47665 17.0359C2.50117 16.9133 2.49504 16.7171 2.49504 16.6804C2.50117 16.6436 2.52569 16.6436 2.52569 16.6007C2.53182 16.57 2.51956 16.478 2.51343 16.4474C2.5073 16.4229 2.48891 16.3983 2.5073 16.3738C2.51956 16.3493 2.53795 16.3432 2.52569 16.2941C2.51343 16.2451 2.48278 16.2022 2.46439 16.1592C2.43986 16.1163 2.32951 16.0121 2.28046 15.9937C2.23142 15.9692 2.23142 15.9569 2.09654 15.914Z" fill="#00A040"/>
<path d="M11.0782 28.5618C11.0782 28.5618 10.551 28.8192 10.5142 28.8376C10.4713 28.8499 10.4223 28.8622 10.3793 28.8806C10.3793 28.8806 10.0483 29.1013 9.96859 29.1564C9.88889 29.1994 9.66205 29.371 9.60074 29.4262C9.53943 29.4752 9.49652 29.5243 9.48426 29.5549C9.47813 29.5917 9.4536 29.604 9.40456 29.6346C9.36164 29.6653 9.34938 29.6653 9.28807 29.7266C9.22677 29.7818 8.98767 30.076 8.94475 30.1557C8.90184 30.2293 8.85279 30.3274 8.84666 30.3581C8.84053 30.3887 8.85279 30.45 8.82827 30.4807C8.80375 30.5113 8.74244 30.5972 8.73018 30.6953C8.71792 30.7995 8.73018 30.8485 8.74244 30.9405C8.76083 31.0386 8.84053 31.247 8.88344 31.2838C8.92023 31.3206 8.94475 31.339 8.98767 31.3512C9.03058 31.3574 9.04284 31.388 9.0735 31.4187C9.09802 31.4432 9.15933 31.48 9.2329 31.48C9.3126 31.48 9.3739 31.4739 9.42295 31.4555C9.47813 31.4371 9.57009 31.4125 9.613 31.4003C9.64979 31.388 9.79079 31.3083 9.85823 31.2715C9.91954 31.2409 9.95632 31.2102 10.0176 31.1489C10.0789 31.0938 10.1954 30.9344 10.2567 30.8669C10.318 30.8056 10.4713 30.6217 10.5449 30.5604C10.6184 30.5113 10.7656 30.3581 10.8269 30.3213C10.8882 30.2845 11.0599 30.1619 11.115 30.1557C11.1579 30.1435 11.2193 30.0944 11.2867 30.0638C11.3603 30.027 11.63 29.9412 11.6913 29.9412C11.7526 29.9412 11.7649 29.9228 11.8507 29.9044C11.9427 29.886 12.1511 29.8553 12.2615 29.8553C12.3718 29.8553 12.5312 29.8186 12.6538 29.8247C12.7703 29.8308 12.8746 29.8615 12.942 29.886C13.0094 29.9105 13.0401 29.9473 13.0891 29.9596C13.132 29.978 13.2363 29.9963 13.3037 30.027C13.3773 30.0577 13.4876 30.1006 13.5857 30.1619C13.6899 30.2293 13.8861 30.3213 13.9474 30.3703C14.0149 30.4132 14.0517 30.4439 14.1314 30.4623C14.2049 30.4868 14.4195 30.4991 14.5053 30.4868C14.5912 30.4745 14.7138 30.4439 14.8609 30.2538C14.8609 30.2538 14.9161 30.2477 14.8793 29.9105C14.8425 29.5672 14.8609 29.6408 14.818 29.5365C14.7873 29.4262 14.7383 29.4139 14.6954 29.371C14.6525 29.3281 14.4563 29.181 14.4379 29.1319C14.4072 29.089 14.3888 29.0522 14.3398 29.0216C14.2908 28.9909 14.2049 28.8989 14.1743 28.8989C14.1375 28.8989 14.1252 28.8989 14.1007 28.8928C14.0823 28.8806 14.0823 28.8376 14.0333 28.8192C13.9842 28.7947 13.9168 28.7518 13.8739 28.7334C13.8371 28.7089 13.8371 28.6844 13.788 28.6844C13.739 28.6844 13.7083 28.6905 13.6654 28.6721C13.6164 28.6476 13.5122 28.5618 13.4815 28.5618C13.4447 28.5618 13.3957 28.5618 13.3773 28.5495C13.3589 28.5372 13.3344 28.4943 13.2914 28.4821C13.2547 28.4698 12.9972 28.4637 12.9359 28.4514C12.8684 28.4453 12.7949 28.4085 12.7274 28.4024C12.6661 28.3962 12.4025 28.4146 12.3412 28.4207C12.2799 28.4207 12.2186 28.4146 12.1757 28.4024C12.1327 28.3962 11.7894 28.4024 11.722 28.4269C11.6607 28.4575 11.6178 28.4943 11.5687 28.5004C11.5197 28.5127 11.3112 28.5188 11.2438 28.5311C11.1702 28.5434 11.1457 28.5434 11.0782 28.5618Z" fill="#00A040"/>
<path d="M12.0589 31.4186C12.0282 31.3941 11.8934 31.4002 11.8504 31.4186C11.8014 31.437 11.7156 31.4677 11.6726 31.4738C11.6236 31.4738 11.6113 31.529 11.5746 31.5474C11.5439 31.5719 11.5316 31.5903 11.4887 31.5964C11.4519 31.5964 11.3906 31.6087 11.3661 31.6393C11.3416 31.67 11.2864 31.7313 11.2619 31.7804C11.2435 31.8233 11.1761 31.9765 11.1393 32.0746C11.0964 32.1789 11.0902 32.2218 11.0841 32.2708C11.078 32.3199 11.0596 32.4486 11.0596 32.516C11.0596 32.5835 11.0596 32.7735 11.1147 32.8471C11.1577 32.9207 11.2251 32.9881 11.3048 33.0494C11.3845 33.1107 11.4887 33.1966 11.5378 33.2211C11.5807 33.2517 11.5868 33.2579 11.6236 33.264C11.6604 33.2701 11.7156 33.2763 11.7523 33.264C11.7891 33.2456 11.8382 33.2701 11.8688 33.2885C11.8934 33.313 11.9485 33.3376 12.0037 33.3314C12.0527 33.3253 12.1324 33.2763 12.1815 33.264C12.2305 33.2579 12.2857 33.2456 12.3225 33.2517C12.3715 33.264 12.4022 33.2395 12.4206 33.2211C12.439 33.2088 12.5064 33.1536 12.5493 33.1352C12.5923 33.123 12.6413 33.1046 12.6536 33.0678C12.6781 33.031 12.721 32.9452 12.7394 32.9207C12.7639 32.8962 12.7762 32.8471 12.8068 32.8164C12.8375 32.7858 12.8804 32.7184 12.8927 32.6877C12.9049 32.6632 12.9233 32.6203 12.9233 32.5957C12.9233 32.5712 12.9356 32.4854 12.9356 32.418C12.9356 32.3444 12.954 32.2831 12.9233 32.2402C12.8927 32.1972 12.8743 32.1114 12.8497 32.0746C12.8252 32.0317 12.7823 31.9765 12.7762 31.9459C12.7639 31.9091 12.7455 31.8539 12.7455 31.8233C12.7455 31.7804 12.7333 31.7129 12.6842 31.6761C12.6352 31.6393 12.5309 31.5964 12.4696 31.578C12.4083 31.5535 12.347 31.529 12.2918 31.5045C12.2367 31.4799 12.1876 31.4554 12.1631 31.4554C12.1447 31.4554 12.1202 31.4554 12.1018 31.4432C12.0895 31.437 12.0834 31.4248 12.0589 31.4186Z" fill="#00A040"/>
<path d="M24.2652 28.2613C24.2652 28.2613 24.069 28.2551 23.9893 28.2429C23.8974 28.2245 23.4314 28.2551 23.3763 28.2551C23.3088 28.2551 23.2598 28.2551 23.2291 28.2306C23.1923 28.2183 23.1372 28.2183 23.0758 28.2551C23.0145 28.2858 22.8429 28.2613 22.757 28.2796C22.6712 28.2919 22.5547 28.3042 22.5302 28.2919C22.5057 28.2858 22.4628 28.2735 22.3892 28.3042C22.3095 28.3348 21.9049 28.4084 21.8252 28.4329C21.7516 28.4574 21.7393 28.4452 21.6596 28.4636C21.5738 28.4881 21.5125 28.4942 21.4757 28.5126C21.4389 28.5249 20.9607 28.6843 20.9056 28.7211C20.8565 28.7578 20.8013 28.7395 20.7523 28.7885C20.7094 28.8314 20.6481 28.8621 20.6113 28.8805C20.6113 28.8805 20.4642 28.9418 20.4028 28.9602C20.3415 28.9785 20.3538 28.954 20.2864 29.0031C20.2128 29.046 20.1086 29.1012 20.0902 29.1318C20.0657 29.1625 20.035 29.1931 20.0105 29.2176C19.9921 29.236 19.7407 29.3648 19.661 29.4261C19.5752 29.4935 19.4281 29.5978 19.3729 29.6284C19.3238 29.6652 19.0725 29.892 18.9928 29.9595C18.9131 30.033 18.7475 30.1802 18.6985 30.2292C18.6556 30.2844 18.5759 30.3825 18.5514 30.4009C18.5268 30.4254 18.4717 30.4131 18.4839 30.4377C18.4901 30.4561 18.5146 30.5051 18.4717 30.5051C18.4226 30.5051 18.4042 30.5235 18.3858 30.5419C18.3674 30.5664 18.3123 30.6277 18.2939 30.6584C18.2755 30.689 18.1774 30.8178 18.1529 30.8607C18.1283 30.9097 18.11 30.9465 18.0854 30.9465C18.0609 30.9588 18.0364 30.9465 18.0364 30.9956C18.0364 31.0507 18.0119 31.0753 17.9935 31.0937C17.9751 31.1182 17.8892 31.2408 17.8647 31.2592C17.8463 31.2837 17.785 31.3328 17.7728 31.3695C17.7666 31.4002 17.7482 31.437 17.7176 31.5044C17.6808 31.5719 17.4478 31.9397 17.4172 32.0071C17.3865 32.0684 17.3313 32.1298 17.3313 32.1543C17.3252 32.1727 17.3375 32.2401 17.2946 32.2585C17.2455 32.2769 17.2087 32.3137 17.1965 32.3443C17.1842 32.3811 17.1842 32.424 17.1658 32.4547C17.1536 32.5037 17.1168 32.5099 17.1045 32.5282C17.0861 32.5528 17.0616 32.5896 17.0493 32.6386C17.0371 32.6938 16.9758 32.8103 16.9451 32.847C16.9267 32.8777 16.8777 32.9206 16.8654 32.9451C16.8654 32.9697 16.8838 33.0126 16.8654 33.0432C16.847 33.08 16.7735 33.1045 16.7735 33.1413C16.7673 33.1781 16.7857 33.2272 16.7735 33.2578C16.7612 33.2823 16.7121 33.3252 16.6815 33.3743C16.6447 33.4295 16.6447 33.5153 16.6447 33.5889C16.6447 33.6747 16.6263 33.6808 16.5957 33.7299C16.5589 33.7789 16.5527 33.8218 16.516 33.9261C16.4792 34.0241 16.3504 34.4594 16.3259 34.582C16.3014 34.7047 16.2953 34.7782 16.2707 34.8211C16.2401 34.8702 16.2278 34.8763 16.2156 34.9131C16.2033 34.9499 16.1665 35.0418 16.1665 35.0786C16.1665 35.0786 16.1788 35.1399 16.1788 35.1706C16.1788 35.2012 16.1359 35.2564 16.1236 35.2993C16.1052 35.33 16.0991 35.4036 16.1052 35.471C16.1113 35.5384 16.1052 35.612 16.0868 35.6488C16.0684 35.6856 16.0316 35.7714 16.0316 35.8021C16.0316 35.8327 16.0562 35.8634 16.05 35.9492C16.0439 36.035 16.0071 36.1944 15.9948 36.2557C15.9887 36.3232 15.9458 36.7523 15.9458 36.8259C15.9519 36.8933 15.9948 37.255 16.0071 37.3715C16.0255 37.488 16.0071 37.4941 16.0194 37.5309C16.0255 37.5677 16.0623 37.5984 16.05 37.629C16.0378 37.6597 15.9642 37.7087 16.0745 37.721C16.0745 37.721 16.1113 37.7516 16.142 37.8007C16.1726 37.8375 16.191 37.8681 16.2401 37.8988C16.283 37.9294 16.3688 37.9907 16.4179 38.0214C16.4669 38.052 16.5037 38.0766 16.5589 38.0766C16.6079 38.0827 16.6386 38.052 16.6876 38.052C16.7367 38.052 16.7367 38.0643 16.8102 38.052C16.8838 38.0337 16.988 37.9662 17.0371 37.9172C17.08 37.8681 17.1352 37.7823 17.1719 37.7149C17.2087 37.6413 17.27 37.5187 17.3007 37.4512C17.3313 37.3838 17.3497 37.3286 17.3865 37.2796C17.4233 37.2305 17.4478 37.157 17.4601 37.0895C17.4724 37.0221 17.5521 36.7155 17.5827 36.5868C17.6072 36.458 17.6379 36.2741 17.644 36.219C17.6563 36.1515 17.6869 36.0289 17.6931 35.9982C17.6992 35.9676 17.7115 35.9308 17.736 35.8266C17.7666 35.7224 17.7728 35.5507 17.7912 35.471C17.8095 35.3913 17.8341 35.3852 17.8525 35.2993C17.8647 35.2135 17.8463 35.1032 17.877 35.0418C17.9076 34.9805 18.018 34.674 18.0425 34.5943C18.067 34.5085 18.1283 34.3307 18.1467 34.2387C18.1651 34.1468 18.2755 33.7605 18.3061 33.7176C18.3368 33.6808 18.3429 33.6379 18.3674 33.5643C18.392 33.4908 18.4042 33.4111 18.4349 33.3682C18.4655 33.3252 18.5207 33.2333 18.5391 33.1965C18.5575 33.1536 18.5514 33.0616 18.6065 33.0248C18.6678 32.9881 18.674 32.9451 18.6924 32.8961C18.7169 32.847 18.7905 32.7551 18.815 32.6876C18.8456 32.6202 18.9192 32.4485 18.9499 32.3995C18.9866 32.3566 18.9989 32.3321 19.0173 32.2953C19.0296 32.2585 19.0357 32.2217 19.0725 32.1849C19.0725 32.1849 19.1215 32.1114 19.146 32.0746C19.1767 32.0501 19.2074 31.9887 19.2319 31.9581C19.2687 31.9213 19.2871 31.8539 19.3116 31.8355C19.33 31.811 19.3422 31.7926 19.3545 31.7926C19.3668 31.7926 19.4281 31.7558 19.4219 31.7006C19.4158 31.6577 19.471 31.6086 19.4832 31.5841C19.5016 31.5657 19.5568 31.4554 19.612 31.3941C19.6672 31.3266 19.7407 31.2285 19.7775 31.2101C19.8143 31.1917 19.8266 31.1488 19.8633 31.1427C19.894 31.1304 19.9185 31.1427 19.9369 31.1243C19.9553 31.1059 19.943 31.0937 19.9921 31.0569C20.035 31.0201 20.1147 30.922 20.1576 30.8852C20.2005 30.8484 20.2741 30.7319 20.3048 30.7258C20.3415 30.7258 20.3293 30.7503 20.3906 30.7381C20.4458 30.7258 20.4642 30.6952 20.5071 30.6829C20.55 30.6768 20.6113 30.6155 20.6542 30.5909C20.7033 30.5603 21.0895 30.2967 21.1692 30.2476C21.2489 30.1986 21.4941 30.0637 21.5677 30.0392C21.6351 30.0085 21.7148 29.984 21.77 29.9717C21.8313 29.9595 21.819 29.9349 21.862 29.9349C21.911 29.9349 21.9539 29.9349 21.9723 29.9227C21.9968 29.9104 22.0214 29.8614 22.0765 29.843C22.1256 29.8307 22.3892 29.7572 22.5057 29.7326C22.6222 29.7081 22.9961 29.61 23.1065 29.61C23.2169 29.61 23.5173 29.5978 23.5663 29.5916C23.6092 29.5855 23.597 29.5978 23.6276 29.6039C23.6521 29.61 23.9709 29.61 24.069 29.61C24.1671 29.61 24.4798 29.5916 24.5411 29.5855C24.5963 29.5855 24.6147 29.5978 24.6453 29.6161C24.6821 29.6284 24.6882 29.6284 24.7618 29.6284C24.8415 29.6284 25.0377 29.6345 25.1787 29.6223C25.3258 29.61 25.4668 29.5303 25.5404 29.4751C25.614 29.4138 25.6508 29.3035 25.6508 29.2728C25.6569 29.2483 25.6692 29.236 25.6753 29.1993C25.6814 29.1747 25.6569 29.1502 25.6508 29.1257C25.6446 29.1012 25.6508 28.9479 25.6385 28.9234C25.6262 28.8927 25.5833 28.8498 25.5404 28.7946C25.5036 28.7517 25.4546 28.6843 25.4362 28.6598C25.4117 28.6352 25.3074 28.5371 25.2768 28.5126C25.24 28.482 25.1726 28.4881 25.148 28.4697C25.1296 28.4636 25.0745 28.4145 25.0622 28.3961C25.0377 28.3777 25.0132 28.3593 24.9764 28.3593C24.9457 28.3593 24.8047 28.3532 24.7557 28.341C24.7066 28.3287 24.6453 28.2858 24.6147 28.2735C24.584 28.2613 24.5288 28.2429 24.5043 28.2674C24.4798 28.2919 24.492 28.298 24.443 28.3042C24.394 28.3042 24.3878 28.3103 24.3633 28.2919C24.3326 28.2735 24.302 28.2674 24.2652 28.2613Z" fill="#00A040"/>
<path d="M21.9418 31.5657C21.9418 31.5657 21.8805 31.627 21.856 31.6822C21.8315 31.7313 21.8008 31.7803 21.7824 31.7987C21.7641 31.8232 21.7211 31.8784 21.7027 31.9397C21.6844 31.9949 21.6476 32.093 21.6353 32.1175C21.623 32.1482 21.5679 32.2217 21.5556 32.2524C21.5372 32.2892 21.5127 32.3627 21.5127 32.4179C21.5188 32.4669 21.5433 32.6202 21.5679 32.6693C21.5985 32.7183 21.623 32.8164 21.666 32.8593C21.7027 32.8961 21.6782 32.9084 21.7089 32.939C21.7334 32.9635 21.7824 33.0003 21.8131 33.0432C21.8376 33.08 21.8683 33.1413 21.8805 33.172C21.9051 33.1965 21.9051 33.1965 21.9418 33.2149C21.9786 33.221 22.0154 33.221 22.0522 33.2333C22.0767 33.2456 22.1319 33.2762 22.1564 33.2823C22.1932 33.3007 22.2729 33.313 22.3097 33.3253C22.3403 33.3253 22.371 33.3314 22.3955 33.3375C22.42 33.3498 22.5059 33.3559 22.5733 33.3559C22.6469 33.3559 22.7266 33.3253 22.794 33.3007C22.8676 33.2762 22.9228 33.221 22.9534 33.221C22.9902 33.2149 23.0454 33.172 23.0822 33.1475C23.1251 33.1229 23.1435 33.0739 23.1803 33.0555C23.2232 33.031 23.26 33.0248 23.2906 32.9942C23.3151 32.9635 23.3397 32.9268 23.3458 32.9084C23.3519 32.89 23.3519 32.7796 23.3642 32.7551C23.3764 32.7428 23.3887 32.6877 23.4132 32.6509C23.4316 32.608 23.45 32.5344 23.4561 32.5283C23.4745 32.5099 23.4623 32.4853 23.4868 32.4731C23.4991 32.4669 23.5481 32.4302 23.4929 32.3995C23.4929 32.3995 23.4745 32.3075 23.4868 32.2953C23.4929 32.2708 23.5174 32.234 23.4929 32.1727C23.4623 32.1114 23.4623 32.0807 23.4439 32.0562C23.4255 32.0317 23.3887 31.9949 23.3764 31.9581C23.358 31.9152 23.3397 31.8661 23.3213 31.8477C23.3029 31.8232 23.1373 31.6577 23.1067 31.6332C23.0822 31.6086 23.0576 31.5719 23.027 31.5535C22.9963 31.5473 22.9534 31.5473 22.9166 31.5289C22.886 31.5167 22.886 31.5044 22.8431 31.4983C22.8063 31.4922 22.7756 31.4922 22.7327 31.486C22.6898 31.4799 22.6469 31.4492 22.5917 31.4309C22.5427 31.4186 22.4997 31.3879 22.4507 31.3879C22.4078 31.3879 22.371 31.3941 22.3281 31.4063C22.2852 31.4186 22.2239 31.4186 22.1932 31.4431C22.1564 31.4615 22.1196 31.486 22.089 31.5167C22.0522 31.5412 22.0154 31.5228 21.9418 31.5657Z" fill="#00A040"/>
<path d="M13.4873 40.9948C13.4873 40.9948 13.236 40.9764 13.1747 40.9948C13.1134 41.0132 13.1195 41.0439 13.0888 41.05C13.0643 41.0561 12.954 41.0561 12.9172 41.0807C12.8804 41.1052 12.7455 41.1788 12.7026 41.2094C12.6658 41.2401 12.629 41.2646 12.6168 41.2891C12.6045 41.3198 12.5371 41.4976 12.5493 41.6324C12.5616 41.7673 12.6045 41.8899 12.5922 41.9328C12.5739 41.9696 12.5923 41.9941 12.6229 42.0248C12.6536 42.0555 12.6658 42.1045 12.7149 42.1106C12.7639 42.1229 12.7762 42.1045 12.8191 42.129C12.862 42.1535 12.8743 42.1903 12.8927 42.2087C12.911 42.2332 13.1011 42.3743 13.2053 42.4356C13.3095 42.4907 13.4873 42.5827 13.6283 42.6379C13.7632 42.6931 13.9104 42.7482 13.9655 42.7605C14.0268 42.7789 14.0207 42.8095 14.0636 42.8095C14.1004 42.8095 14.1801 42.7973 14.223 42.8218C14.2721 42.8463 14.3395 42.9015 14.3824 42.9076C14.4192 42.9138 14.456 42.8831 14.4928 42.9138C14.5357 42.9444 14.5234 42.9873 14.5786 42.9873C14.6399 42.9935 14.7932 42.9628 14.8484 42.9751C14.9097 42.9751 15.0445 42.9873 15.1059 42.9996C15.1733 43.0118 15.1794 43.0302 15.2101 43.0425C15.2469 43.0486 15.9948 43.0486 16.1174 43.0486C16.24 43.0486 16.3136 43.0609 16.381 43.0425C16.4485 43.0302 16.4914 43.0057 16.5343 43.0057C16.5834 43.0057 16.6385 43.0302 16.7121 43.0302C16.7857 43.0302 16.7979 43.0302 16.8286 42.9996C16.8654 42.9751 16.9083 42.9751 16.9451 42.9751C16.9941 42.9751 17.0064 42.9751 17.0493 42.9873C17.0861 42.9996 17.1658 42.9628 17.2087 42.9567C17.2455 42.9567 17.6992 42.8954 17.7911 42.877C17.8831 42.8647 17.9812 42.877 18.0118 42.8463C18.0363 42.8157 18.067 42.7789 18.1222 42.7789C18.1835 42.7789 18.208 42.7544 18.2325 42.7298C18.2632 42.7053 18.3368 42.7053 18.4042 42.6808C18.4716 42.6501 18.6801 42.5643 18.8272 42.5091C18.9743 42.454 19.1399 42.362 19.2686 42.2946C19.3974 42.2332 19.4096 42.2087 19.4587 42.1965C19.5016 42.1781 19.4955 42.1658 19.569 42.1535C19.6365 42.129 19.7223 42.0922 19.753 42.0555C19.7897 42.0248 19.9185 41.9267 19.9491 41.8654C19.9859 41.798 20.084 41.6754 20.1147 41.6508C20.1514 41.6263 20.1882 41.6079 20.2066 41.565C20.2189 41.516 20.2066 41.4608 20.225 41.4424C20.2434 41.424 20.2618 41.3872 20.2741 41.3075C20.2802 41.2278 20.2741 41.1236 20.2495 41.0623C20.225 41.001 20.1944 40.9335 20.1637 40.8967C20.1269 40.8538 20.0534 40.8232 20.035 40.8048C20.0227 40.7987 19.9921 40.7803 19.9675 40.7925C19.943 40.8048 19.9185 40.8354 19.9001 40.8232C19.8817 40.8048 19.8694 40.7864 19.8694 40.768C19.8694 40.7496 19.8327 40.7128 19.7836 40.719C19.7407 40.7251 19.6794 40.7251 19.6549 40.719C19.6181 40.7128 19.6181 40.7006 19.5752 40.7006C19.52 40.7006 19.4832 40.7128 19.428 40.7251C19.3851 40.7373 19.1889 40.7373 19.1399 40.7435C19.0908 40.7557 19.0479 40.7619 18.9743 40.7925C18.8946 40.8232 18.6801 40.9029 18.5697 40.9519C18.4594 41.001 18.3184 41.0623 18.208 41.1175C18.1099 41.1788 17.8769 41.2707 17.7911 41.3198C17.7053 41.3627 17.6562 41.3872 17.6072 41.4056C17.5643 41.4117 17.4662 41.424 17.3987 41.4424C17.3313 41.4485 17.0983 41.5098 17.0248 41.5221C16.9451 41.5405 16.6324 41.5773 16.5527 41.5773C16.4607 41.5773 15.9642 41.5711 15.8415 41.5711C15.7067 41.5711 15.4798 41.5343 15.3879 41.516C15.2959 41.4976 14.9955 41.4485 14.879 41.424C14.7687 41.4056 14.456 41.3136 14.2966 41.2646C14.1372 41.2217 13.9594 41.1788 13.8368 41.1297C13.7203 41.0868 13.5916 41.0316 13.4873 40.9948Z" fill="#00A040"/>
<path d="M5.29672 61.8455C5.29672 61.7658 5.35803 61.7045 5.43773 61.7045H7.17273C7.33213 61.7045 7.46087 61.5757 7.46087 61.4163V60.2086C7.46087 60.0492 7.33213 59.9204 7.17273 59.9204H1.38531C1.22591 59.9204 1.09717 60.0492 1.09717 60.2086V61.4163C1.09717 61.5757 1.22591 61.7045 1.38531 61.7045H3.11418C3.19388 61.7045 3.26132 61.7658 3.26132 61.8455V69.8154C3.26132 69.9748 3.39006 70.1036 3.54333 70.1036H5.00858C5.16798 70.1036 5.29672 69.9748 5.29672 69.8154V61.8455Z" fill="#00A040"/>
<path d="M16.6201 60.2086C16.6201 60.0492 16.4913 59.9204 16.3319 59.9204H14.8728C14.7134 59.9204 14.5847 60.0492 14.5847 60.2086V63.979C14.5847 64.0587 14.5234 64.12 14.4437 64.12H10.7836C10.7039 64.12 10.6426 64.0587 10.6426 63.979V60.2086C10.6426 60.0492 10.5077 59.9204 10.3545 59.9204H8.88922C8.72982 59.9204 8.60107 60.0492 8.60107 60.2086V69.8154C8.60107 69.9748 8.72982 70.1036 8.88922 70.1036H10.3545C10.5077 70.1036 10.6426 69.9748 10.6426 69.8154V66.045C10.6426 65.9653 10.7039 65.904 10.7836 65.904H14.4437C14.5234 65.904 14.5847 65.9653 14.5847 66.045V69.8154C14.5847 69.9748 14.7134 70.1036 14.8728 70.1036H16.3319C16.4913 70.1036 16.6201 69.9748 16.6201 69.8154V60.2086Z" fill="#00A040"/>
<path d="M18.2754 69.8154C18.2754 69.9748 18.4041 70.1036 18.5635 70.1036H20.0227H23.7134C23.8728 70.1036 24.0015 69.9748 24.0015 69.8154V68.6077C24.0015 68.4483 23.8728 68.3195 23.7134 68.3195H20.4579C20.3782 68.3195 20.3108 68.2582 20.3108 68.1785V66.045C20.3108 65.9653 20.3782 65.904 20.4579 65.904H23.7134C23.8728 65.904 24.0015 65.7753 24.0015 65.6159V64.4081C24.0015 64.2487 23.8728 64.12 23.7134 64.12H20.4579C20.3782 64.12 20.3108 64.0587 20.3108 63.979V61.8455C20.3108 61.7658 20.3782 61.7045 20.4579 61.7045H23.7134C23.8728 61.7045 24.0015 61.5757 24.0015 61.4163V60.2086C24.0015 60.0492 23.8728 59.9204 23.7134 59.9204H20.0227H18.5635C18.4041 59.9204 18.2754 60.0492 18.2754 60.2086V69.8154Z" fill="#00A040"/>
<path d="M40.1993 70.1036C40.0399 70.1036 39.9111 69.9748 39.9111 69.8154V60.2086C39.9111 60.0492 40.0399 59.9204 40.1993 59.9204H41.6584C41.8178 59.9204 41.9465 60.0492 41.9465 60.2086V69.8154C41.9465 69.9748 41.8178 70.1036 41.6584 70.1036H40.1993Z" fill="#00A040"/>
<path d="M65.1697 68.3195C63.3427 68.3195 61.8652 66.8359 61.8652 65.015C61.8652 63.1819 63.3427 61.7044 65.1697 61.7044C66.9966 61.7044 68.4803 63.1819 68.4803 65.015C68.4803 66.8359 66.9966 68.3195 65.1697 68.3195ZM65.1697 59.7303C62.2576 59.7303 59.8911 62.0968 59.8911 65.015C59.8911 67.9271 62.2576 70.2936 65.1697 70.2936C68.0879 70.2936 70.4544 67.9271 70.4544 65.015C70.4544 62.0968 68.0879 59.7303 65.1697 59.7303Z" fill="#00A040"/>
<path d="M48.3347 64.5553C47.9239 64.7821 47.4702 64.825 46.9982 64.825H45.9069C45.8272 64.825 45.7659 64.7576 45.7659 64.6779V61.8455C45.7659 61.7658 45.8272 61.7045 45.9069 61.7045H46.9185C47.4273 61.7045 47.8932 61.7474 48.3101 61.9681C48.7086 62.1643 49.009 62.5934 49.009 63.2494C49.009 63.8993 48.7086 64.3652 48.3347 64.5553ZM49.8244 60.6254C49.2359 60.1718 48.5492 59.9204 46.8265 59.9204H44.0125C43.8592 59.9204 43.7305 60.0492 43.7305 60.2086V69.8154C43.7305 69.9748 43.8592 70.1036 44.0125 70.1036H45.4777C45.6371 70.1036 45.7659 69.9748 45.7659 69.8154V66.7439C45.7659 66.6704 45.8272 66.6029 45.9069 66.6029H47.0472C48.5308 66.6029 49.2236 66.3577 49.9103 65.7937C50.554 65.2725 50.9831 64.2242 50.9831 63.2187C50.9831 62.2194 50.5662 61.2263 49.8244 60.6254Z" fill="#00A040"/>
<path d="M56.6052 64.5553C56.1944 64.7821 55.7407 64.825 55.2748 64.825H54.1774C54.1038 64.825 54.0364 64.7576 54.0364 64.6779V61.8455C54.0364 61.7658 54.1038 61.7045 54.1774 61.7045H55.189C55.6978 61.7045 56.1699 61.7474 56.5806 61.9681C56.9791 62.1643 57.2795 62.5934 57.2795 63.2494C57.2795 63.8993 56.9791 64.3652 56.6052 64.5553ZM58.1011 60.6254C57.5064 60.1718 56.8197 59.9204 55.097 59.9204H52.2891C52.1297 59.9204 52.001 60.0492 52.001 60.2086V69.8154C52.001 69.9748 52.1297 70.1036 52.2891 70.1036H53.7482C53.9076 70.1036 54.0364 69.9748 54.0364 69.8154V66.7439C54.0364 66.6704 54.1038 66.6029 54.1774 66.6029H55.3177C56.8075 66.6029 57.4941 66.3577 58.1808 65.7937C58.8306 65.2725 59.2536 64.2242 59.2536 63.2187C59.2536 62.2194 58.8429 61.2263 58.1011 60.6254Z" fill="#00A040"/>
<path d="M35.9196 66.7807C35.938 66.8052 35.9626 66.8236 35.9993 66.8236C36.0484 66.8236 36.0913 66.7807 36.0913 66.7255V60.2086C36.0913 60.0492 36.22 59.9204 36.3794 59.9204H37.7159C37.8753 59.9204 37.998 60.0492 37.998 60.2086V69.8154C37.998 69.9748 37.8753 70.1036 37.7159 70.1036H36.3794C36.2814 70.1036 36.1894 70.0545 36.1403 69.9748L31.6833 63.2433C31.671 63.2188 31.6404 63.2004 31.6036 63.2004C31.5546 63.2004 31.5116 63.2433 31.5116 63.2985V69.8154C31.5116 69.9748 31.3829 70.1036 31.2235 70.1036H29.887C29.7276 70.1036 29.605 69.9748 29.605 69.8154V60.2086C29.605 60.0492 29.7276 59.9204 29.887 59.9204H31.2235C31.3277 59.9204 31.4135 59.9756 31.4626 60.0492L35.9196 66.7807Z" fill="#00A040"/>
<path d="M77.9152 66.7807C77.9336 66.8052 77.9582 66.8236 77.9949 66.8236C78.044 66.8236 78.0869 66.7807 78.0869 66.7255V60.2086C78.0869 60.0492 78.2157 59.9204 78.3751 59.9204H79.7116C79.871 59.9204 79.9997 60.0492 79.9997 60.2086V69.8154C79.9997 69.9748 79.871 70.1036 79.7116 70.1036H78.3751C78.277 70.1036 78.185 70.0545 78.136 69.9748L73.685 63.2433C73.6666 63.2188 73.636 63.2004 73.6053 63.2004C73.5502 63.2004 73.5072 63.2433 73.5072 63.2985V69.8154C73.5072 69.9748 73.3785 70.1036 73.2191 70.1036H71.8826C71.7293 70.1036 71.6006 69.9748 71.6006 69.8154V60.2086C71.6006 60.0492 71.7293 59.9204 71.8826 59.9204H73.2191C73.3233 59.9204 73.4092 59.9756 73.4582 60.0492L77.9152 66.7807Z" fill="#00A040"/>
<path d="M17.8343 75.4619C17.8343 75.3148 17.9508 75.1921 18.1041 75.1921H19.1156C19.2689 75.1921 19.3854 75.3148 19.3854 75.4619V81.1696C19.3854 81.752 19.3854 82.2609 19.7287 82.8126C20.0107 83.2541 20.538 83.5606 21.1878 83.5606C21.8377 83.5606 22.3588 83.2663 22.6163 82.8372C22.9719 82.3038 22.9719 81.7827 22.9719 81.1696V75.4619C22.9719 75.3148 23.0945 75.1921 23.2416 75.1921H24.2593C24.4065 75.1921 24.5291 75.3148 24.5291 75.4619V81.1696C24.5413 82.4325 24.3329 83.4012 23.4868 84.094C22.9167 84.6151 22.1503 84.9339 21.2062 84.9339C20.5196 84.9339 19.5325 84.7438 18.8827 84.1124C17.9385 83.2725 17.822 82.3283 17.8343 81.1696V75.4619Z" fill="#00A040"/>
<path d="M1.09717 75.4619C1.09717 75.3148 1.21978 75.1921 1.36692 75.1921H5.84849C5.99563 75.1921 6.11824 75.3148 6.11824 75.4619V76.2405C6.11824 76.3876 5.99563 76.5102 5.84849 76.5102H2.78312C2.70955 76.5102 2.64824 76.5654 2.64824 76.6451V79.1832C2.64824 79.2568 2.70955 79.3181 2.78312 79.3181H5.84849C5.99563 79.3181 6.11824 79.4346 6.11824 79.5879V80.3665C6.11824 80.5136 5.99563 80.6301 5.84849 80.6301H2.78312C2.70955 80.6301 2.64824 80.6914 2.64824 80.765V84.4863C2.64824 84.6335 2.53176 84.7561 2.37849 84.7561H1.36692C1.21978 84.7561 1.09717 84.6335 1.09717 84.4863V75.4619Z" fill="#00A040"/>
<path d="M53.6988 76.6451C53.6988 76.5654 53.6375 76.5102 53.5639 76.5102H51.8166C51.6634 76.5102 51.5469 76.3876 51.5469 76.2405V75.4619C51.5469 75.3148 51.6634 75.1921 51.8166 75.1921H57.132C57.2791 75.1921 57.4017 75.3148 57.4017 75.4619V76.2405C57.4017 76.3876 57.2791 76.5102 57.132 76.5102H55.3847C55.3112 76.5102 55.2498 76.5654 55.2498 76.6451V84.4863C55.2498 84.6335 55.1272 84.7561 54.9801 84.7561H53.9685C53.8153 84.7561 53.6988 84.6335 53.6988 84.4863V76.6451Z" fill="#00A040"/>
<path d="M38.8504 83.4441H37.3361C37.2625 83.4441 37.2012 83.3828 37.2012 83.3092V76.6451C37.2012 76.5654 37.2625 76.5102 37.3361 76.5102H38.8626C40.101 76.5102 40.8122 76.9333 41.321 77.5218C41.8544 78.1778 42.161 79.0606 42.161 79.9864C42.161 81.9911 41.1187 83.4441 38.8504 83.4441ZM42.6085 76.7432C41.5479 75.3883 39.96 75.1921 38.6787 75.1921H36.0364C35.8831 75.1921 35.7666 75.3148 35.7666 75.4619V84.4863C35.7666 84.6335 35.8831 84.7561 36.0364 84.7561H38.7829C42.1426 84.7561 43.6569 82.7513 43.6569 79.9619C43.6569 78.7051 43.3319 77.6077 42.6085 76.7432Z" fill="#00A040"/>
<path d="M58.3584 75.4619C58.3584 75.3148 58.481 75.1921 58.6281 75.1921H59.6459C59.793 75.1921 59.9156 75.3148 59.9156 75.4619V84.4863C59.9156 84.6335 59.793 84.7561 59.6459 84.7561H58.6281C58.481 84.7561 58.3584 84.6335 58.3584 84.4863V75.4619Z" fill="#00A040"/>
<path d="M11.7952 83.4992C9.84564 83.4992 8.27004 81.9236 8.27004 79.974C8.27004 78.0245 9.84564 76.4489 11.7952 76.4489C13.7448 76.4489 15.3204 78.0245 15.3204 79.974C15.3204 81.9236 13.7448 83.4992 11.7952 83.4992ZM11.7952 75.0143C9.05478 75.0143 6.83545 77.2336 6.83545 79.974C6.83545 82.7145 9.05478 84.9338 11.7952 84.9338C14.5357 84.9338 16.755 82.7145 16.755 79.974C16.755 77.2336 14.5357 75.0143 11.7952 75.0143Z" fill="#00A040"/>
<path d="M66.0706 83.4992C64.121 83.4992 62.5454 81.9236 62.5454 79.974C62.5454 78.0245 64.121 76.4489 66.0706 76.4489C68.0202 76.4489 69.5958 78.0245 69.5958 79.974C69.5958 81.9236 68.0202 83.4992 66.0706 83.4992ZM66.0706 75.0143C63.3302 75.0143 61.1108 77.2336 61.1108 79.974C61.1108 82.7145 63.3302 84.9338 66.0706 84.9338C68.811 84.9338 71.0304 82.7145 71.0304 79.974C71.0304 77.2336 68.811 75.0143 66.0706 75.0143Z" fill="#00A040"/>
<path d="M33.9703 84.4863C33.9703 84.6335 33.8538 84.7561 33.7005 84.7561H32.8054C32.7135 84.7561 32.6338 84.7132 32.5847 84.6396L27.7966 77.8038C27.7844 77.7793 27.7537 77.767 27.7231 77.767C27.674 77.767 27.6372 77.8038 27.6372 77.8529V84.4863C27.6372 84.6335 27.5146 84.7561 27.3675 84.7561H26.4724C26.3191 84.7561 26.2026 84.6335 26.2026 84.4863V75.4619C26.2026 75.3148 26.3191 75.1921 26.4724 75.1921H27.3675C27.4594 75.1921 27.5391 75.2351 27.5882 75.3086L32.3763 82.1444C32.3886 82.1689 32.4192 82.1812 32.4499 82.1812C32.4989 82.1812 32.5357 82.1444 32.5357 82.0954V75.4619C32.5357 75.3148 32.6583 75.1921 32.8054 75.1921H33.7005C33.8538 75.1921 33.9703 75.3148 33.9703 75.4619V84.4863Z" fill="#00A040"/>
<path d="M79.9998 84.4863C79.9998 84.6335 79.8772 84.7561 79.7301 84.7561H78.835C78.743 84.7561 78.6633 84.7132 78.6143 84.6396L73.8262 77.8038C73.8078 77.7793 73.7833 77.767 73.7526 77.767C73.7036 77.767 73.6607 77.8038 73.6607 77.8529V84.4863C73.6607 84.6335 73.538 84.7561 73.3909 84.7561H72.4958C72.3487 84.7561 72.2261 84.6335 72.2261 84.4863V75.4619C72.2261 75.3148 72.3487 75.1921 72.4958 75.1921H73.3909C73.4829 75.1921 73.5626 75.2351 73.6116 75.3086L78.3997 82.1444C78.4181 82.1689 78.4426 82.1812 78.4733 82.1812C78.5223 82.1812 78.5653 82.1444 78.5653 82.0954V75.4619C78.5653 75.3148 78.6817 75.1921 78.835 75.1921H79.7301C79.8772 75.1921 79.9998 75.3148 79.9998 75.4619V84.4863Z" fill="#00A040"/>
<path d="M49.8425 81.2309C49.8303 81.2677 49.7935 81.2861 49.7567 81.2861H46.7588C46.722 81.2861 46.6852 81.2677 46.6729 81.2309C46.6668 81.2187 46.6668 81.2125 46.6668 81.2003C46.6668 81.188 46.6668 81.1757 46.6729 81.1696L48.175 77.1724C48.1872 77.1356 48.2179 77.1111 48.2608 77.1111C48.2976 77.1111 48.3283 77.1356 48.3405 77.1724L49.8425 81.1696C49.8425 81.1757 49.8487 81.188 49.8487 81.2003C49.8487 81.2125 49.8425 81.2187 49.8425 81.2309ZM52.7056 84.3821L48.9842 75.3577C48.9413 75.2596 48.8494 75.1921 48.7329 75.1921H47.7826C47.6661 75.1921 47.5742 75.2596 47.5313 75.3577L43.8099 84.3821C43.7976 84.4189 43.7915 84.4496 43.7915 84.4863C43.7915 84.6335 43.908 84.7561 44.0613 84.7561H45.1403C45.2567 84.7561 45.3548 84.6825 45.3916 84.5844L46.1151 82.6594C46.1518 82.5552 46.2499 82.4877 46.3664 82.4877H50.1491C50.2656 82.4877 50.3637 82.5552 50.4004 82.6594L51.1239 84.5844C51.1606 84.6825 51.2587 84.7561 51.3752 84.7561H52.4604C52.6075 84.7561 52.7301 84.6335 52.7301 84.4863C52.7301 84.4496 52.7179 84.4189 52.7056 84.3821Z" fill="#00A040"/>
<path d="M53.2025 24.6626C53.4784 24.6626 53.6991 24.4419 53.6991 24.1721V22.9644C53.6991 22.6946 53.4784 22.4678 53.2025 22.4678H45.4226C45.1528 22.4678 44.9321 22.6946 44.9321 22.9644V24.1721C44.9321 24.4419 45.1528 24.6626 45.4226 24.6626H53.2025Z" fill="#00A040"/>
<path d="M55.8874 29.8982C55.8874 30.0331 55.7771 30.1435 55.6422 30.1435H42.9822C42.8474 30.1435 42.737 30.0331 42.737 29.8982V17.2383C42.737 17.1034 42.8474 16.993 42.9822 16.993H55.6422C55.7771 16.993 55.8874 17.1034 55.8874 17.2383V29.8982ZM57.5857 14.7982H41.0388C40.769 14.7982 40.5483 15.0189 40.5483 15.2948V31.8417C40.5483 32.1114 40.769 32.3321 41.0388 32.3321H57.5857C57.8615 32.3321 58.0823 32.1114 58.0823 31.8417V15.2948C58.0823 15.0189 57.8615 14.7982 57.5857 14.7982Z" fill="#00A040"/>
<path d="M75.6166 49.3756C75.6166 49.6454 75.3959 49.8661 75.12 49.8661H73.9183C73.6425 49.8661 73.4218 49.6454 73.4218 49.3756V43.5392C73.4218 43.4043 73.3114 43.2939 73.1765 43.2939H67.3401C67.0703 43.2939 66.8496 43.0732 66.8496 42.7973V41.5957C66.8496 41.3198 67.0703 41.0991 67.3401 41.0991H75.12C75.3959 41.0991 75.6166 41.3198 75.6166 41.5957V49.3756Z" fill="#00A040"/>
<path d="M69.7678 48.4069C69.7678 49.2161 69.118 49.866 68.3087 49.866C67.4995 49.866 66.8496 49.2161 66.8496 48.4069C66.8496 47.6037 67.4995 46.9478 68.3087 46.9478C69.118 46.9478 69.7678 47.6037 69.7678 48.4069Z" fill="#00A040"/>
<path d="M77.8049 51.8156C77.8049 51.9505 77.6946 52.0608 77.5597 52.0608H64.8997C64.7648 52.0608 64.6545 51.9505 64.6545 51.8156V39.1556C64.6545 39.0207 64.7648 38.9104 64.8997 38.9104H77.5597C77.6946 38.9104 77.8049 39.0207 77.8049 39.1556V51.8156ZM79.5031 36.7156H62.9563C62.6865 36.7156 62.4658 36.9363 62.4658 37.2122V53.759C62.4658 54.0288 62.6865 54.2495 62.9563 54.2495H79.5031C79.779 54.2495 79.9997 54.0288 79.9997 53.759V37.2122C79.9997 36.9363 79.779 36.7156 79.5031 36.7156Z" fill="#00A040"/>
<path d="M49.3153 47.1807C49.3153 47.4566 49.0946 47.6773 48.8187 47.6773H47.6171C47.3412 47.6773 47.1205 47.4566 47.1205 47.1807V39.1556C47.1205 39.0207 47.0101 38.9104 46.8753 38.9104H41.0388C40.769 38.9104 40.5483 38.6897 40.5483 38.4138V37.2122C40.5483 36.9363 40.769 36.7156 41.0388 36.7156H48.8187C49.0946 36.7156 49.3153 36.9363 49.3153 37.2122V47.1807Z" fill="#00A040"/>
<path d="M58.0827 37.2122C58.0827 36.9363 57.862 36.7156 57.5861 36.7156H56.3845C56.1086 36.7156 55.8879 36.9363 55.8879 37.2122V38.6651C55.8879 38.8 55.7775 38.9104 55.6426 38.9104H52.001C51.7251 38.9104 51.5044 39.1311 51.5044 39.4008V40.6086C51.5044 40.8783 51.7251 41.0991 52.001 41.0991H57.5861C57.862 41.0991 58.0827 40.8783 58.0827 40.6086V37.2122Z" fill="#00A040"/>
<path d="M43.442 54.2496C43.5769 54.2496 43.6995 54.1944 43.7915 54.1085L47.752 50.1481C47.7765 50.1174 47.7949 50.0745 47.7949 50.0316C47.7949 49.9396 47.7213 49.8661 47.6355 49.8661H42.9822C42.8474 49.8661 42.737 49.7557 42.737 49.6208V47.9226C42.737 47.7878 42.8474 47.6774 42.9822 47.6774H44.4352C44.7111 47.6774 44.9318 47.4567 44.9318 47.1808V45.9792C44.9318 45.7033 44.7111 45.4826 44.4352 45.4826H42.9822C42.8474 45.4826 42.737 45.3722 42.737 45.2374V43.5392C42.737 43.4043 42.8474 43.2939 42.9822 43.2939H44.4352C44.7111 43.2939 44.9318 43.0732 44.9318 42.7973V41.5957C44.9318 41.3198 44.7111 41.0991 44.4352 41.0991H41.0388C40.769 41.0991 40.5483 41.3198 40.5483 41.5957V51.5643C40.5483 51.8402 40.769 52.0609 41.0388 52.0609H42.3385C42.4305 52.0609 42.504 52.1345 42.504 52.2264C42.504 52.2693 42.4857 52.3122 42.455 52.3429L40.8304 53.9737C40.7997 53.9982 40.7813 54.0411 40.7813 54.084C40.7813 54.176 40.8549 54.2496 40.9468 54.2496H43.442Z" fill="#00A040"/>
<path d="M56.3843 54.2495C56.1084 54.2495 55.8877 54.0288 55.8877 53.7591V51.5152C55.8877 51.3742 55.9429 51.2516 56.0348 51.1658L57.8005 49.394C57.8311 49.3695 57.8679 49.3511 57.917 49.3511C58.0089 49.3511 58.0825 49.4185 58.0825 49.5105V53.7591C58.0825 54.0288 57.8618 54.2495 57.5859 54.2495H56.3843Z" fill="#00A040"/>
<path d="M57.9351 46.163C58.0271 46.071 58.0823 45.9484 58.0823 45.8136V43.7843C58.0823 43.5145 57.8615 43.2938 57.5857 43.2938H56.384C56.1082 43.2938 55.8875 43.5145 55.8875 43.7843V44.9062C55.8875 45.0411 55.8323 45.1637 55.7464 45.2557L47.0285 53.9736C46.9979 53.9981 46.9795 54.041 46.9795 54.0839C46.9795 54.1759 47.0531 54.2495 47.145 54.2495H49.6402C49.7751 54.2495 49.8977 54.1943 49.9897 54.1084L57.9351 46.163Z" fill="#00A040"/>
<path d="M75.6163 28.4391C75.6163 28.1694 75.3955 27.9486 75.1197 27.9486H72.5754C72.4344 27.9486 72.324 27.8383 72.324 27.7034V19.4269C72.324 19.292 72.4344 19.1817 72.5754 19.1817H79.5031C79.779 19.1817 79.9997 18.961 79.9997 18.6912V17.4835C79.9997 17.2137 79.779 16.993 79.5031 16.993H72.5754C72.4344 16.993 72.324 16.8827 72.324 16.7478V15.2948C72.324 15.0189 72.1033 14.7982 71.8336 14.7982H70.6258C70.3561 14.7982 70.1354 15.0189 70.1354 15.2948V16.7478C70.1354 16.8827 70.025 16.993 69.8901 16.993H62.9563C62.6865 16.993 62.4658 17.2137 62.4658 17.4835V18.6912C62.4658 18.961 62.6865 19.1817 62.9563 19.1817H69.8901C70.025 19.1817 70.1354 19.292 70.1354 19.4269V27.7034C70.1354 27.8383 70.0128 27.9486 69.8901 27.9486H67.3398C67.07 27.9486 66.8493 28.1694 66.8493 28.4452V29.6469C66.8493 29.9227 67.07 30.1435 67.3398 30.1435H69.8901C70.025 30.1435 70.1354 30.2599 70.1354 30.3887V31.8417C70.1354 32.1114 70.3561 32.3321 70.6258 32.3321H71.8336C72.1033 32.3321 72.324 32.1114 72.324 31.8417V30.3887C72.324 30.2538 72.4283 30.1435 72.5754 30.1435H75.1197V30.1373C75.3955 30.1373 75.6163 29.9166 75.6163 29.6469V28.4391Z" fill="#00A040"/>
<path d="M67.7996 24.8097C67.8854 24.7177 67.9406 24.5951 67.9406 24.4602V21.9589C67.9406 21.8669 67.867 21.7933 67.7812 21.7933C67.7321 21.7933 67.6892 21.8117 67.6647 21.8424L62.6068 26.9002C62.521 26.9861 62.4658 27.1087 62.4658 27.2497V29.7449C62.4658 29.8369 62.5394 29.9104 62.6252 29.9104C62.6743 29.9104 62.7172 29.892 62.7417 29.8614L67.7996 24.8097Z" fill="#00A040"/>
<path d="M74.6601 24.8097C74.5742 24.7177 74.519 24.5951 74.519 24.4602V21.9589C74.519 21.8669 74.5926 21.7933 74.6846 21.7933C74.7275 21.7933 74.7704 21.8117 74.8011 21.8424L79.8528 26.9002C79.9447 26.9861 79.9999 27.1087 79.9999 27.2497V29.7449C79.9999 29.8369 79.9264 29.9104 79.8344 29.9104C79.7854 29.9104 79.7486 29.892 79.7179 29.8614L74.6601 24.8097Z" fill="#00A040"/>
<path d="M2.09648 6.65045C2.23749 8.12796 3.32263 8.44063 3.87439 8.44063C4.80013 8.44063 5.65844 7.72946 5.65844 6.74241C5.65844 5.49174 4.58556 5.21586 3.54946 4.87867C2.83217 4.66409 1.27496 4.20429 1.27496 2.51834C1.25044 0.942736 2.56241 0.06604 3.92344 0.06604C5.0331 0.06604 6.3083 0.679114 6.4493 2.36507H5.46225C5.35803 1.78878 5.06376 0.905951 3.88665 0.905951C2.9977 0.905951 2.26201 1.51289 2.26201 2.43864C2.24975 3.51765 3.13257 3.78127 4.4752 4.24107C5.32125 4.566 6.64549 5.03807 6.64549 6.67498C6.64549 8.12796 5.54808 9.28667 3.88665 9.28667C2.39688 9.28667 1.15848 8.34254 1.09717 6.65045H2.09648Z" fill="#00A040"/>
<path d="M13.9105 9.12726H13.0706V7.97468C12.7089 8.81459 11.8322 9.31731 10.6735 9.30505C8.65035 9.2744 7.94531 7.90111 7.94531 6.32551V2.6532H8.82201V6.15385C8.82201 7.55166 9.44734 8.48966 10.9003 8.4774C12.2491 8.46514 13.0216 7.66201 13.0216 6.31325V2.6532H13.9105V9.12726Z" fill="#00A040"/>
<path d="M21.6228 5.87802C21.6228 4.66414 20.7706 3.29085 19.0233 3.29085C18.2999 3.29085 17.6623 3.579 17.1964 4.05106C16.7488 4.517 16.4729 5.16686 16.4729 5.90255C16.4729 6.62597 16.7488 7.27583 17.2209 7.74177C17.6746 8.20157 18.3244 8.47746 19.0479 8.47746C20.5008 8.47746 21.6228 7.36779 21.6228 5.89028V5.87802ZM15.6392 2.65326H16.4852V4.00202C17.0124 3.06401 17.9504 2.47546 19.195 2.47546C21.3714 2.47546 22.5117 4.24112 22.5117 5.91481C22.5117 7.71724 21.1997 9.30511 19.195 9.30511C17.7604 9.30511 16.8347 8.47746 16.5342 7.80307V9.12731V11.5796H15.6392V2.65326Z" fill="#00A040"/>
<path d="M29.8505 5.87802C29.8505 4.66414 28.9983 3.29085 27.2511 3.29085C26.5338 3.29085 25.8901 3.579 25.4241 4.05106C24.9766 4.517 24.7007 5.16686 24.7007 5.90255C24.7007 6.62597 24.9766 7.27583 25.4486 7.74177C25.9023 8.20157 26.5522 8.47746 27.2756 8.47746C28.7347 8.47746 29.8505 7.36779 29.8505 5.89028V5.87802ZM23.873 2.65326H24.713V4.00202C25.2402 3.06401 26.1843 2.47546 27.4227 2.47546C29.5992 2.47546 30.7395 4.24112 30.7395 5.91481C30.7395 7.71724 29.4275 9.30511 27.4227 9.30511C25.9882 9.30511 25.0624 8.47746 24.762 7.80307V9.12731V11.5796H23.873V2.65326Z" fill="#00A040"/>
<path d="M32.5845 5.90255C32.5845 7.36779 33.7003 8.47746 35.1349 8.47746C36.5756 8.47746 37.6853 7.36779 37.6853 5.89028C37.6853 4.41278 36.5756 3.30311 35.1349 3.30311C33.7003 3.30311 32.5845 4.41278 32.5845 5.89028V5.90255ZM31.7017 5.87802C31.7017 4.07559 33.0504 2.47546 35.1349 2.47546C37.2255 2.47546 38.5742 4.07559 38.5742 5.89028C38.5742 7.70498 37.2255 9.29284 35.1349 9.29284C33.0504 9.29284 31.7017 7.70498 31.7017 5.89028V5.87802Z" fill="#00A040"/>
<path d="M39.9111 2.65326H40.751V3.71387C41.2231 2.75135 42.063 2.49386 42.8232 2.47546V3.35216H42.7374C41.4867 3.35216 40.7878 4.13076 40.7878 5.60214V9.12731H39.9111V2.65326Z" fill="#00A040"/>
<path d="M44.6131 3.3644H43.3379V2.65324H44.6131V0.225464H45.4898V2.65324H46.9121V3.3644H45.4898V9.1273H44.6131V3.3644Z" fill="#00A040"/>
<path d="M52.9388 5.43661C52.8775 4.30242 51.7863 3.19276 50.4498 3.22954C49.052 3.22954 48.0159 4.25338 47.9362 5.43661H52.9388ZM47.9239 6.14164C47.9668 7.76629 49.3524 8.55102 50.4498 8.53876C51.4491 8.53876 52.2522 8.04217 52.6752 7.20226H53.601C53.3006 7.90117 52.8407 8.42841 52.289 8.77786C51.7495 9.12731 51.1119 9.30511 50.4498 9.30511C48.1998 9.30511 47.0288 7.51493 47.0288 5.90255C47.0288 4.00202 48.5002 2.47546 50.4375 2.47546C51.351 2.47546 52.1909 2.80039 52.804 3.38894C53.5519 4.10624 53.9136 5.10555 53.8155 6.14164H47.9239Z" fill="#00A040"/>
<path d="M55.5627 5.89027C55.575 7.18998 56.4762 8.47744 58.1622 8.47744C58.8856 8.47744 59.5416 8.18929 60.0014 7.71723C60.4734 7.23903 60.7493 6.57691 60.7248 5.85348C60.7248 5.11779 60.4489 4.49246 59.9769 4.03878C59.5232 3.56672 58.8733 3.29083 58.1499 3.29083C56.654 3.29083 55.5627 4.42502 55.5627 5.878V5.89027ZM61.5525 9.1273H60.7003V7.79079C60.2405 8.6491 59.376 9.30509 58.0273 9.30509C55.9612 9.30509 54.686 7.6927 54.686 5.878C54.686 3.95295 56.0777 2.47544 58.015 2.47544C59.4374 2.47544 60.3754 3.29083 60.6635 3.96521V2.59193V0.225464H61.5525V9.1273Z" fill="#00A040"/>
<path d="M72.7411 5.878C72.7411 4.4005 71.6253 3.29083 70.1784 3.29083C68.6887 3.29083 67.6158 4.44341 67.6158 5.878C67.6158 7.28807 68.6396 8.47744 70.1417 8.47744C71.8644 8.47744 72.7411 7.14094 72.7411 5.89027V5.878ZM66.7759 0.225464H67.6648V2.65324V3.95295C68.2043 3.03947 69.1791 2.48771 70.3011 2.47544C72.1403 2.47544 73.6362 3.85486 73.6362 5.878C73.6362 7.82758 72.2384 9.30509 70.2765 9.30509C69.0626 9.30509 68.1124 8.71654 67.6281 7.79079V9.1273H66.7759V0.225464Z" fill="#00A040"/>
<path d="M76.4503 9.00464L73.9429 2.6532H74.8931L76.9285 7.88885L79.0253 2.6532H80L76.3032 11.5796H75.3407L76.4503 9.00464Z" fill="#00A040"/>
</svg>
