<svg width="42" height="85" viewBox="0 0 42 85" fill="none" xmlns="http://www.w3.org/2000/svg">
<g clip-path="url(#clip0)">
<path fill-rule="evenodd" clip-rule="evenodd" d="M35.1405 69.0624C34.3004 68.3634 33.0405 67.9439 31.2211 67.9439C29.821 67.9439 28.7014 68.084 27.8617 68.2237V81.6447H29.5412V76.1925C29.9613 76.3322 30.381 76.3322 30.9409 76.3322C32.6208 76.3322 34.1604 75.7729 35.0002 74.7945C35.7001 74.0955 36.1201 73.1167 36.1201 71.8584C36.3999 70.7402 35.9802 69.7614 35.1401 69.0624H35.1405ZM8.68486 80.2467C7.985 80.2467 7.28514 80.2467 6.86508 80.107V69.4819C7.28514 69.3422 7.985 69.2021 8.96467 69.2021C12.7441 69.2021 14.424 71.1594 14.424 74.3749C14.424 78.1497 12.3244 80.3864 8.68486 80.2467ZM34.4403 12.8618C34.7204 13.9803 34.3004 15.0985 34.5805 16.3567C33.8806 15.0985 32.6208 14.5396 31.6408 13.5608C31.0808 13.0015 30.801 12.1628 30.801 11.4638C31.361 12.722 32.7607 13.0015 33.6005 14.12C33.8806 14.3998 33.8806 14.6793 34.1604 14.9588C33.7404 13.9803 33.4606 12.8618 33.3207 11.6035L32.4806 10.3452C33.3207 10.625 34.1604 11.7432 34.4403 12.8618ZM21.4227 9.92604C21.4227 9.78631 21.7025 9.92604 21.7025 9.92604L22.5426 9.64623C22.8224 9.64623 23.2424 9.64623 23.3823 9.92604C23.1025 10.2055 22.9623 10.2055 22.6825 10.2055C22.2624 10.2055 21.8427 10.3452 21.4227 9.92604ZM21.2828 12.5823C21.5626 12.4426 21.7025 12.5823 21.9826 12.5823C23.1025 12.8618 24.0822 13.1416 25.0619 13.8406C24.922 13.7008 24.7821 13.5608 24.7821 13.421C24.7821 13.1416 24.5023 13.1416 24.5023 13.0015H24.6422C24.922 13.2813 24.922 13.2813 25.0619 13.5608C25.2021 13.5608 25.342 13.5608 25.342 13.7008C25.342 13.8406 25.342 13.9803 25.6218 14.12C25.6218 14.3998 26.0419 14.6793 26.0419 14.9588C26.0419 15.0988 26.1818 14.9588 26.1818 14.9588L26.462 15.3783V15.6581C26.6019 15.6581 26.7418 15.518 26.7418 15.518C27.0216 15.6581 26.7418 15.7978 26.7418 15.9376H27.0216C27.0216 16.0773 26.8817 16.217 26.8817 16.217C26.8817 16.3567 27.0216 16.3567 27.1615 16.3567C27.3017 16.3567 27.3017 16.4968 27.3017 16.6366C27.5815 16.916 27.1615 17.1958 27.3017 17.4753C27.4416 17.7551 27.3017 17.7551 27.1615 18.0346C27.1615 18.3144 26.8817 18.3144 26.8817 18.5938H26.6019C26.4616 18.7335 26.7418 18.8733 26.6019 19.013H27.1615C27.0216 18.7335 27.1615 18.4541 27.3017 18.1743C27.4416 17.8948 27.4416 17.7547 27.5815 17.615C27.5815 17.615 27.7214 17.4753 27.7214 17.615C27.7214 17.8948 27.7214 18.0346 27.5815 18.1743C27.8617 18.4541 27.7214 18.7335 27.8617 19.013H29.5412V18.8733C29.4013 17.8948 29.2614 16.7763 28.8413 15.9376C28.7014 15.9376 28.5615 16.0773 28.5615 15.9376C28.5615 15.9376 28.4213 15.9376 28.5615 15.7978C28.2814 15.518 28.2814 15.3783 28.0016 15.0985C27.7214 15.0985 27.5815 14.819 27.3017 14.819C27.0216 14.819 27.1615 14.3995 26.8817 14.5396C26.7418 14.5396 26.6019 14.2598 26.6019 14.2598C26.6019 13.9803 26.6019 13.7008 26.3217 13.421C26.0419 13.2813 26.0419 13.7008 25.9016 13.5608C25.7617 13.5608 25.9016 13.2813 25.7617 13.2813C25.7617 13.1412 25.6218 13.1412 25.6218 13.0015C25.9016 12.722 25.342 12.722 25.342 12.3025C25.342 12.023 25.0619 12.023 24.922 11.7432C24.0822 11.4638 23.2424 11.0442 22.2624 10.9045C21.9826 10.9045 21.8424 10.9045 21.5626 10.7648V10.9045C21.2824 11.6035 21.2824 12.023 21.2824 12.5823H21.2828ZM12.0443 19.013V18.7335C12.1842 16.916 12.7441 15.3783 13.7242 13.9803C14.004 13.7008 14.1439 13.2813 14.5639 13.1416L13.444 12.023C11.9044 13.8406 10.7845 15.9376 10.6446 18.1743C10.6446 18.4541 10.6446 18.8733 10.5043 19.1531C10.9244 18.8733 11.6242 18.8733 12.0443 19.013ZM21.2828 10.2055C21.4227 10.0658 21.4227 10.0658 21.5626 10.2055V10.4853H21.7025C22.9623 10.625 24.2221 10.9045 25.2021 11.6035C25.4819 11.4638 25.7617 11.324 25.902 11.6035C26.1818 11.4638 26.1818 11.8833 26.462 11.8833C26.6019 11.8833 26.8817 12.3028 26.8817 12.5823C26.8817 12.722 27.1618 12.8618 27.1618 12.8618C27.4416 12.5823 27.7218 12.1628 28.0016 11.8833L28.2814 11.7436C26.6019 10.2055 24.5023 9.22705 22.4027 8.94723C22.1225 8.94723 21.5626 8.94723 21.2828 8.80751V10.2055ZM19.463 24.0461C19.6029 23.9063 19.7431 23.7663 19.883 23.7663C19.3231 23.9063 19.0429 23.4868 18.4833 23.3471C18.2031 23.2073 17.9233 23.0676 17.7834 22.7878C17.5033 23.2073 17.0836 23.6265 16.6635 23.9063C16.9433 23.9063 16.9433 24.1858 17.0836 24.1858C17.9233 24.8848 19.0429 25.1646 19.883 25.4441L19.6029 25.3043C19.3231 25.0245 19.1832 24.7451 19.0429 24.4656C19.463 24.3255 19.463 24.1858 19.463 24.0461ZM15.6835 19.5723V19.8521C15.6835 20.1315 15.4037 19.8521 15.4037 19.9918V20.2713C15.2638 20.5511 15.6835 20.6908 15.6835 21.1104C15.8238 21.3898 15.6835 21.5295 15.9637 21.8093C15.9637 22.0888 15.9637 22.6481 16.2435 22.9279V23.2073C16.2435 23.4868 15.9637 23.4868 15.9637 23.4868C15.9637 23.4868 16.1036 23.4868 16.1036 23.6265C16.5236 23.0676 16.9433 22.6481 17.6432 22.0888L17.3634 21.8093C17.0832 21.2501 16.6635 20.5511 16.5233 19.8521L16.3834 19.7124C16.3834 19.9918 16.2435 19.9918 16.2435 20.2716C16.1036 20.2716 15.9637 20.1315 15.9637 20.1315C15.9637 20.1315 15.8238 19.9918 15.9637 19.8521H16.1036V19.5723C16.1036 19.4325 15.9637 19.2928 16.1036 19.2928C16.2435 19.2928 16.3834 19.4325 16.3834 19.5723C16.5236 19.5723 16.6635 19.5723 16.6635 19.4325C16.6635 19.2928 16.8034 19.1531 16.6635 19.1531C16.8034 18.8733 16.6635 18.7335 16.6635 18.4541C16.5236 18.314 16.3834 18.4541 16.2435 18.4541C15.8238 18.5938 16.3834 18.8733 16.2435 19.2928C15.9637 19.7124 15.8238 19.4325 15.6835 19.5723ZM14.8437 12.8618C16.5233 11.324 18.343 10.4853 20.5829 10.3452V8.66778C18.343 8.80751 16.3834 9.5065 14.5639 10.7648C14.2838 11.0446 14.004 11.324 13.5839 11.6035C14.1439 11.8833 14.5639 12.3028 14.8437 12.8618ZM20.5829 15.2386C19.6029 15.3783 18.903 15.7978 18.2031 16.4968H18.343C18.4833 16.6366 18.6232 16.6366 18.7631 16.7763C18.7631 16.916 18.6232 16.916 18.6232 17.0561H18.7631C18.903 17.0561 18.903 17.0561 18.903 16.916C19.0429 16.7763 19.0429 17.0561 19.1832 17.0561H19.463C19.6029 16.916 19.7431 17.0561 19.7431 16.916C20.0229 16.6366 19.883 16.4968 20.0229 16.3567C20.1628 16.3567 20.0229 16.4968 20.0229 16.6366C20.3027 16.7763 20.3027 16.4968 20.5829 16.6366V15.2386ZM16.2435 12.3025C15.9637 12.5823 15.5436 12.8618 15.2638 13.1416C15.6835 13.421 16.1036 13.8406 16.3834 14.12V14.2598C17.2235 13.421 18.4833 12.8618 19.6029 12.5823C19.883 12.5823 20.1628 12.4426 20.443 12.5823L20.4426 11.0446C18.903 11.0446 17.6432 11.6035 16.2435 12.3028V12.3025ZM14.8437 18.314C14.8437 18.5938 14.8437 18.8733 14.7038 19.1531C14.9836 19.013 15.1235 19.1531 15.4037 19.1531C15.2638 19.1531 15.4037 18.8733 15.2638 18.8733C15.2638 18.7335 15.2638 18.5938 15.4037 18.4541C15.4037 18.1743 15.6835 18.1743 15.6835 17.8948C15.6835 17.615 15.9637 17.7547 16.1036 17.615C16.2435 17.615 16.1036 17.4753 16.1036 17.3356C16.2435 17.1958 16.3834 17.1958 16.5236 17.0557L16.8034 16.7763C17.0836 16.7763 17.0836 16.3567 17.5033 16.3567C17.0836 16.0773 16.6635 15.518 16.2435 15.2386C15.6835 16.0773 15.1235 17.0557 14.8437 18.314ZM15.1235 20.5511C15.1235 20.411 14.9836 20.411 14.9836 20.2713C15.1235 19.9918 14.9836 19.7124 15.2638 19.7124C14.9836 19.7124 14.9836 19.8521 14.7038 19.7124L14.8437 19.8521C14.8437 20.1315 14.9836 20.5511 14.9836 20.9703C14.9836 20.6908 14.9836 20.5511 15.1235 20.5511ZM25.6218 26.2828C26.0419 26.0033 26.4616 25.7235 26.7418 25.4441H26.4616C26.1818 25.4441 26.1818 25.1646 26.1818 25.1646L25.4819 24.4656V24.3255C25.4819 24.4656 25.342 24.6053 25.2021 24.6053C25.2021 24.7451 25.2021 24.8848 25.342 24.8848C25.6218 25.0245 25.9016 25.1646 25.9016 25.3043C25.7617 25.5838 25.342 25.7235 25.6218 26.1431C25.7617 26.1431 25.4819 26.1431 25.6218 26.2828ZM21.7025 17.1958C21.8427 17.3356 21.9826 17.1958 21.9826 17.0561C22.1225 17.0561 22.2624 17.1958 22.2624 17.3356H22.5422C22.5422 16.916 23.2424 17.0557 23.3823 16.4965L23.2424 16.4968C23.2424 16.4968 23.1025 16.4968 23.1025 16.3567L23.3823 16.0773C22.8224 15.7978 22.4023 15.518 21.8427 15.3783C21.5626 15.3783 21.4227 15.3783 21.1425 15.2386C21.2828 15.518 21.1425 16.0773 21.2828 16.3567L21.5626 16.4968C21.7025 16.217 21.8427 16.217 21.9826 16.0773H22.2624V16.4968C22.2624 17.0561 21.8427 17.0561 21.7025 17.1958ZM27.5815 20.9703C27.3017 21.8093 27.0216 22.508 26.6019 23.0676C26.3217 23.3471 26.3217 23.6265 26.0419 23.7663L26.6019 24.1858V24.0461C26.6019 24.0461 26.6019 23.9063 26.7418 23.9063C27.0216 23.9063 27.0216 24.1858 27.0216 24.1858C27.0216 24.4656 27.1615 24.4656 27.1615 24.7451C28.5615 23.2073 29.2614 21.3898 29.4013 19.4325L29.5412 19.2928H27.8617C27.8617 19.5723 27.8617 19.9918 27.7214 20.2713L28.0016 20.5511V20.8305C27.7214 21.1104 27.7214 21.1104 27.5815 20.9703ZM26.1818 16.0773C25.9016 15.7978 25.7617 15.3783 25.342 15.0985C24.7821 15.6577 24.2221 16.217 23.802 16.7763L23.9423 16.916C23.9423 16.7763 24.0822 16.6366 24.0822 16.6366C24.2221 16.3567 24.362 16.6366 24.6422 16.6366H25.4819C25.7617 16.7763 25.7617 16.916 25.9016 17.0561V17.3356C25.9016 17.7551 26.1818 17.1958 26.3217 17.3356C26.4616 17.3356 26.6019 17.3356 26.6019 17.4753C26.6019 17.7551 26.8817 17.615 26.8817 17.7551C26.8817 17.8948 26.7418 17.8948 26.7418 17.8948C26.7418 18.1743 26.4616 18.1743 26.6019 18.3144C26.8817 18.3144 26.8817 18.0346 27.0216 17.8948C26.8817 17.615 26.8817 17.3356 26.7418 17.0561C26.4616 17.0561 26.4616 16.7763 26.3217 16.7763C25.9016 16.4968 26.3217 16.3567 26.1818 16.0773ZM21.2828 27.6808C21.7025 27.5411 22.1225 27.5411 22.6825 27.4013C22.5422 27.4013 22.4023 27.4013 22.4023 27.2616C22.1225 27.2616 22.1225 26.9818 21.9826 26.7023C21.9826 26.5626 21.9826 26.4225 22.1225 26.2828C21.9826 26.0033 21.7025 26.2828 21.4227 26.1431C21.4227 26.1431 21.2828 26.0033 21.1425 26.0033L21.2828 26.1431V27.6808ZM21.7025 23.3471C21.8427 23.3471 21.7025 23.6265 21.8427 23.6265C22.1225 23.4868 22.2624 23.9063 22.4023 23.6265C22.4023 23.3471 22.6825 23.3471 22.8224 23.3471C23.1025 23.2073 23.3823 23.0676 23.3823 22.6481C23.1025 22.6481 23.1025 22.7878 23.1025 22.9275C22.9623 23.0676 22.8224 22.6481 22.8224 22.7878V22.9275C22.5426 23.2073 22.5426 22.7878 22.4023 22.9275V23.0676C22.2624 22.7878 22.1225 22.9275 21.9826 22.7878H21.7025C21.7025 22.9275 21.4227 22.7878 21.4227 22.9275C21.2828 22.9275 21.2828 23.2073 21.1425 23.2073C20.8627 23.2073 20.8627 23.4868 20.7228 23.3471V23.4868H21.0026C21.1425 23.2073 21.4227 23.4868 21.7025 23.3471ZM23.2424 21.2501C23.2424 21.3898 23.2424 21.5295 23.3823 21.5295C23.6621 21.5295 23.5222 21.8093 23.6621 21.8093C23.802 21.8093 23.6621 21.6693 23.6621 21.5295C23.6621 21.2501 23.5222 21.2501 23.2424 21.2501C23.3823 21.2501 23.3823 21.2501 23.2424 21.2501C23.3823 21.11 23.3823 21.11 23.2424 21.2501ZM23.1025 13.421C22.5422 13.1416 21.9826 13.1416 21.2828 13.1416V14.819H21.4227C22.2624 14.9588 23.2424 15.2386 23.9423 15.7978V15.9376C24.2221 15.6577 24.5023 15.2386 24.7821 14.9588L25.0619 14.819H24.922C24.362 14.12 23.6621 13.7008 23.1025 13.421ZM22.6825 22.3683C22.8224 22.2285 23.1025 22.2285 23.1025 22.0888C22.9623 21.9491 22.9623 22.0888 22.6825 22.3683C22.5422 22.2285 22.5422 22.3683 22.6825 22.3683ZM26.1818 19.4325L26.4616 19.7124C26.7418 19.8521 26.4616 19.9918 26.7418 20.1315C27.0216 20.2713 27.0216 20.4114 27.0216 20.6908V20.5511C27.1615 20.2713 27.0216 19.8521 27.1615 19.7124C26.8817 19.5723 26.4616 19.5723 26.1818 19.4325ZM23.9423 23.4868C24.2221 23.4868 24.2221 23.7663 24.5023 23.7663C24.7821 23.6265 25.0619 23.7663 25.2021 23.6265C25.2021 23.3471 25.342 23.3471 25.4819 23.0676C25.6218 23.2073 25.6218 23.3471 25.6218 23.4868C25.7617 23.2073 25.902 23.2073 26.0419 22.9275C26.3217 22.3683 26.7418 21.8093 26.8817 21.2501C26.7418 21.2501 26.6019 21.2501 26.462 21.3898C26.3217 21.3898 26.1818 21.5295 25.902 21.3898H25.7617C25.7617 21.5295 25.6218 21.6693 25.4819 21.5295C25.342 21.5295 25.342 21.3898 25.342 21.2501V21.5295C25.2021 21.6693 25.2021 21.8093 25.0619 21.8093C24.922 21.9491 24.7821 21.9491 24.6422 22.0888C24.6422 22.3683 24.362 22.3683 24.2221 22.3683H24.5023C24.7821 22.3683 24.7821 22.0888 24.7821 22.0888C24.922 22.0888 25.0619 21.9491 25.0619 22.0888C25.2021 22.2285 25.2021 22.3683 25.2021 22.6481C25.0619 22.7878 25.2021 22.9275 25.0619 23.2073C25.0619 23.4868 24.7821 23.4868 24.7821 23.6265C24.6422 23.7666 24.5023 23.7666 24.5023 23.7666C24.0822 23.4868 23.6621 23.4868 23.1025 23.4868C23.1025 23.4868 22.9623 23.4868 23.1025 23.6265C23.5222 23.3471 23.6621 23.3471 23.9423 23.4868ZM18.343 22.3683C18.903 22.7878 19.6029 23.2073 20.4426 23.2073V22.7878C20.4426 22.6481 20.7228 22.6481 20.7228 22.6481C20.7228 22.6481 20.8627 22.5083 20.7228 22.5083C20.5829 22.5083 20.5829 22.2285 20.5829 22.2285C20.5829 22.2285 20.7228 22.2285 20.7228 22.0888C20.5829 21.9491 20.7228 21.8093 20.7228 21.8093L20.8627 21.6693C20.5829 21.8093 20.1628 21.6693 19.883 21.3898L19.6029 21.11L18.343 22.3683ZM17.7831 20.5511C17.6432 20.5511 17.6432 20.5511 17.7831 20.5511H17.5033C17.5033 20.2713 17.2235 20.411 17.0832 20.2713L17.5033 21.11C17.6432 21.3898 17.7831 21.5295 17.9233 21.8093C18.0632 21.5295 18.2031 21.5295 18.343 21.2501V20.9703C18.343 20.8305 18.343 20.6908 18.2031 20.6908C18.0632 20.6908 18.2031 20.9703 18.2031 20.9703H18.0632C17.9233 20.9703 17.7831 20.8305 17.7831 20.6908C17.9233 20.6908 17.7831 20.6908 17.7831 20.5511ZM34.0205 26.4225C33.1804 26.8421 32.4809 27.2616 31.9206 27.9606C33.0405 26.1431 32.4809 23.6265 33.1804 21.6693L33.4606 20.9703C33.3207 22.2285 33.8806 23.2073 33.7404 24.4656C33.7404 25.3043 33.4606 25.8633 33.0405 26.5626C33.6005 25.8633 33.8806 25.0245 34.5805 24.4656C35.5602 23.6265 36.5402 22.508 36.6801 21.2501C37.0998 23.3471 35.84 25.3043 34.0205 26.4225ZM28.8413 33.4128C27.1615 33.9721 25.4819 33.4128 24.0822 32.434C23.5222 32.1546 23.1025 31.5953 22.4023 31.5953H21.7025C22.9623 32.1546 24.2221 32.9933 25.2021 34.1118C24.922 34.3913 24.7821 34.5314 24.5023 34.6711C23.5222 33.5526 22.4023 32.5741 21.0026 31.8751C20.7228 31.8751 20.5829 32.1546 20.3027 32.1546C19.3231 32.8536 18.2031 33.6923 17.5033 34.8108L16.8034 34.1118C17.9233 32.9933 19.0429 32.1546 20.3027 31.5953C19.0429 31.1761 18.2031 32.2943 17.2235 32.8536C16.1036 33.6923 14.5639 33.9721 13.1642 33.4128C12.3241 33.133 11.6242 32.7138 11.2045 32.0149C12.3244 32.8536 13.8641 32.8536 15.1239 32.2943C16.8034 31.5953 18.4833 30.7566 20.443 31.1761C20.7228 31.1761 21.0026 31.4556 21.2828 31.1761C22.8224 30.8963 24.3624 31.036 25.7617 31.735L27.1615 32.2943C28.4213 32.7138 29.821 32.5741 31.0808 31.8751C30.2411 32.7138 29.6811 33.2731 28.8413 33.4128ZM6.30547 25.5838C7.14524 27.6808 9.66488 27.8209 11.0646 29.0791C11.2045 29.3586 11.6242 29.638 11.9044 29.638C11.6242 29.3586 11.0646 28.939 10.9244 28.5199C10.0846 27.2616 10.3644 25.4441 9.66453 24.0461C10.2245 24.8848 10.7845 25.5838 11.2045 26.5626C11.7641 27.9606 12.0443 29.4983 13.3041 30.4771C11.9044 30.0576 10.2245 30.1973 8.96467 29.3586C7.70484 28.5199 6.44537 27.2616 6.30512 25.5838H6.30547ZM5.18555 21.3898C5.32545 23.2073 7.28514 24.1858 8.2648 25.8632C8.54496 26.1431 8.68486 26.4225 9.10457 26.7023C9.10457 26.4225 8.82477 26.4225 8.82477 26.1431C8.54496 25.4441 8.40506 24.7451 8.54496 24.0461C8.68486 23.2073 8.96467 22.2285 8.82477 21.2501C9.66488 22.9275 9.38473 25.1646 9.80479 26.9818C9.94469 27.4013 10.0846 27.8209 10.3644 28.1003C8.68486 26.9818 6.44537 26.0033 5.74551 23.7666C5.18555 23.0676 5.18555 22.2285 5.18555 21.3898ZM5.32545 18.0346L5.74551 16.7763C5.46535 18.4541 6.58527 19.8521 7.00498 21.2501L7.42504 22.9275C6.86508 21.3898 7.7052 19.8521 8.54496 18.4541C8.82477 18.1743 8.82476 17.7547 8.96467 17.3356C9.10492 18.0346 8.82477 18.8733 8.68486 19.5723C8.40506 20.411 8.1249 21.5295 7.8451 22.3683C7.56494 22.9275 7.7052 23.6265 7.8451 24.1858C7.28514 23.0673 6.02531 22.0888 5.74551 20.8305C5.32545 20.1315 5.04565 19.013 5.32545 18.0346ZM6.02531 16.0773C6.02531 14.6793 6.58527 13.7008 7.28514 12.722C6.44537 13.9803 7.14524 15.6577 7.00498 17.0557L6.86508 18.5938C6.86508 18.314 6.86508 18.314 7.00498 18.0346C7.28514 16.7763 8.2648 15.9376 9.10457 15.0985C9.38473 14.819 9.38473 14.6793 9.52463 14.3995C9.38473 14.9588 9.24482 15.6577 8.96467 16.217C8.2648 17.615 6.86508 18.7335 6.72518 20.2713C6.86508 18.8733 5.74551 17.615 6.02531 16.0773ZM8.1249 11.7436C8.40506 11.1843 8.96467 10.9045 9.66453 10.7648C8.54496 11.6035 8.68486 12.8618 8.2648 14.12C8.1249 14.3998 7.985 14.9588 7.8451 15.2386C8.1249 14.819 8.40506 14.3998 8.68486 13.8406C9.52463 13.0018 10.6446 12.5823 11.0646 11.4638C11.0646 13.0018 9.80479 14.12 8.54496 14.9588C7.985 15.3783 7.56494 15.7978 7.28514 16.4968V15.3783C7.42504 14.12 7.28514 12.5823 8.1249 11.7432V11.7436ZM31.5009 10.2055C32.3407 11.0446 32.6208 11.8833 32.9006 12.8618L33.0405 13.1416C31.9206 12.3025 30.801 11.0446 29.9613 9.92604L29.1212 8.94723C29.821 9.22705 30.801 9.5065 31.5009 10.2055ZM15.9637 9.22705C17.5033 8.38832 19.3231 8.10851 21.0026 7.96878C25.2021 7.96878 29.2614 10.4853 31.0808 14.2598C32.2008 16.4968 32.6208 19.5723 31.9206 22.0888C31.0808 25.1646 28.5615 28.1003 25.6218 29.3586C22.2624 30.8963 17.6432 30.6169 14.7038 28.5199C10.6446 25.8632 8.96467 20.9703 10.2245 16.217C10.9244 13.421 13.1642 10.4853 15.9637 9.22705ZM12.7441 9.22705C11.9044 9.92604 11.3444 10.9045 10.6446 11.7436C10.0846 12.3028 9.38473 12.8618 8.68486 13.421C9.10457 12.5823 9.10457 11.7436 9.66488 11.1843C10.3644 9.92604 11.6242 9.64659 12.7441 9.22705ZM31.2211 74.9342C30.6611 74.9342 30.1012 74.9342 29.6811 74.7945V69.6217C29.9613 69.6217 30.5212 69.4819 31.361 69.4819C33.3207 69.4819 34.5805 70.3207 34.5805 72.1382C34.5805 73.9554 33.3207 74.9342 31.2211 74.9342ZM14.2838 69.6217C13.1642 68.5031 11.3444 67.9442 8.82477 67.9442C7.42504 67.9442 6.16521 68.084 5.04565 68.2237V81.6447C5.88541 81.7844 7.00498 81.7844 8.2648 81.7844C10.9244 81.7844 13.0239 81.0854 14.2838 79.8272C15.5436 78.5689 16.2435 76.7517 16.2435 74.6547C16.2435 72.2779 15.5436 70.7402 14.2838 69.6217ZM0.00634766 43.1992H20.3027V63.4704H0.00634766V43.1992H0.00634766ZM0.00634766 0H41.9992V41.9409H0.00634766V0H0.00634766ZM35.9802 21.8093C35.4203 22.6481 34.5805 23.3471 34.1604 24.3255C34.1604 23.6265 34.3004 22.7878 34.0205 22.2285C33.6005 20.8305 33.1804 19.5723 33.0405 17.8948V17.3356C33.3207 18.8733 34.8603 19.9918 34.7204 21.6693C34.7204 22.0888 34.5802 22.5083 34.4403 22.7878V22.6481C34.7204 21.8093 34.7204 20.9703 35.1401 20.1315C35.6693 19.0746 36.1984 18.0176 36.0185 16.7243C35.9533 17.2344 35.8042 17.7279 35.5602 18.1743C35.2804 18.8733 35.1405 19.5723 35.0002 20.2713C35.0002 20.1315 35.0002 19.9918 34.8603 19.8521C34.5805 18.314 33.0405 17.1958 32.4809 15.9376C32.2008 15.518 32.2008 15.0985 32.0609 14.3995C32.6208 15.518 34.1604 16.0773 34.7204 17.4753C35.0002 17.7547 34.8603 18.1743 35.0002 18.5938C34.7204 17.1958 34.8603 15.9376 35.0002 14.6793C35.0002 13.9803 34.8603 13.2813 34.5805 12.722C34.7204 12.5823 34.8603 12.8618 35.1405 13.1416C35.8092 14.0956 36.1517 15.3755 36.0348 16.5807C37.0902 18.244 36.8058 20.2971 35.9802 21.8093ZM26.1818 10.9045C26.3217 10.9045 26.4616 11.0446 26.4616 11.1843C26.4616 11.324 26.6019 11.4638 26.4616 11.4638C26.1818 11.6035 26.1818 11.1843 25.9016 11.1843V11.0446C26.0419 10.7648 26.0419 11.0446 26.1818 10.9045ZM27.3017 13.1416C27.4416 13.1416 27.4416 13.421 27.5815 13.421C28.0016 13.7008 28.1415 14.12 28.4213 14.2598C28.7014 14.6793 29.1215 15.0988 29.1215 15.518C29.5412 16.6366 29.9613 17.615 29.9613 19.0134L31.6408 19.013C31.5009 18.8733 31.6408 18.7335 31.5009 18.4541C31.2211 15.9376 30.2411 13.8406 28.5615 12.023C28.2814 12.4426 27.8617 12.8618 27.3017 13.1416ZM27.3017 25.7235C27.1615 26.0033 26.7418 26.2828 26.4616 26.5626C26.1818 26.8421 25.6218 26.9818 25.342 27.5411C25.0619 27.8209 25.0619 27.9606 24.7821 28.1003C24.6422 28.3798 24.5023 28.3798 24.2221 28.5199C23.802 28.939 23.3823 28.2401 23.1022 28.2401L22.2624 28.3798C21.9826 28.3798 21.7025 28.5199 21.4227 28.3798V30.0576H21.5626C24.2221 29.9179 26.6019 28.939 28.5615 27.1215L27.3017 26.0033V25.7235ZM14.8437 13.5608L14.2838 14.3998C13.3041 15.7978 12.7441 17.3356 12.7441 19.013H14.4237V18.8733C14.5639 17.3356 15.1235 15.7978 16.2435 14.6793C15.6835 14.2598 15.2638 13.9803 14.8437 13.5608ZM29.9613 19.5723C29.821 21.5295 29.1215 23.0676 28.1415 24.6053C27.8617 24.8848 27.8617 25.1646 27.4416 25.3043C27.8617 25.5838 28.2814 26.1431 28.7014 26.5626C30.381 24.6053 31.361 22.3686 31.361 19.7124V19.5723H29.9613ZM20.5829 13.1416C19.1832 13.2813 17.9233 13.8406 16.8034 14.6793C17.2235 14.9588 17.6432 15.518 17.9233 15.7978C17.9233 15.7978 17.9233 15.6577 18.0632 15.6577C18.6232 15.3783 19.1832 14.9588 19.7431 14.819C20.0229 14.819 20.3027 14.6793 20.5829 14.6793V13.1416ZM20.7228 17.7547C20.4426 18.0346 20.3027 18.0346 20.0229 18.1743C19.883 18.314 20.0229 18.4541 19.7431 18.4541C19.7431 18.5938 19.463 18.7335 19.463 18.7335C19.3231 19.013 19.463 19.1531 19.3231 19.4325C19.0429 19.7124 19.0429 19.1531 18.903 19.1531H18.4833C18.343 19.2928 18.2031 19.4325 18.343 19.4325C18.343 19.5723 18.0632 19.4325 18.0632 19.7124C18.343 19.7124 18.343 19.7124 18.6232 19.5723H18.903C18.903 19.5723 19.0429 19.5723 19.0429 19.7124C19.1832 19.7124 19.1832 19.4325 19.1832 19.4325C19.1832 19.2928 19.3231 19.2928 19.463 19.2928C19.6029 19.2928 19.463 19.4325 19.463 19.4325C19.7431 19.5723 19.463 19.7124 19.3231 19.8521C19.3231 19.9918 19.3231 20.1315 19.0429 20.1315V19.9918C19.0429 20.1315 19.0429 20.2713 19.1832 20.2713C19.3231 20.1315 19.3231 19.9918 19.463 19.9918C19.6029 19.8521 19.463 19.7124 19.6029 19.5723C19.883 19.5723 20.1628 19.4325 20.443 19.7124V19.9918C20.443 20.1315 20.3027 20.2713 20.1628 20.2713V20.5511C20.0229 20.8305 19.7431 20.8305 19.463 20.8305C19.7431 21.1104 20.3027 21.1104 20.7228 21.1104C21.0026 21.1104 20.8627 20.8305 21.0026 20.6908C21.1429 20.4114 21.4227 20.5511 21.7028 20.4114C21.8427 20.1315 21.9826 20.1315 21.9826 19.8521C21.7028 19.7124 21.7028 19.5723 21.7028 19.4325C21.5626 19.2928 21.5626 19.1531 21.4227 19.1531V19.013C21.4227 18.8733 21.5626 18.8733 21.5626 18.7335C21.4227 18.5938 21.4227 18.4541 21.4227 18.4541C21.1429 18.4541 21.1429 18.1743 21.0026 18.1743C21.0026 18.0346 20.7228 18.0346 20.7228 17.8948C20.443 18.0346 20.443 17.615 20.1628 17.615V17.3356C20.3027 17.1958 20.443 17.3356 20.443 17.3356H20.3027C20.1628 17.1958 20.0229 17.3356 19.883 17.3356C20.7228 17.615 20.5829 17.615 20.7228 17.7547ZM14.4237 25.4441C14.1439 25.3043 14.1439 25.1646 13.8641 24.8848C13.5839 24.8848 13.5839 24.6053 13.444 24.6053V24.3255V24.4656C13.1638 24.6053 13.1638 24.3255 13.0239 24.1858C12.7441 24.0461 12.884 23.6265 12.6042 23.7663C12.4643 23.7663 12.4643 23.6265 12.3241 23.6265C12.0443 23.6265 12.0443 23.3471 12.0443 23.3471V23.4868C11.7641 23.4868 11.7641 23.2073 11.6242 23.2073H11.4843C11.3444 23.0676 11.2045 22.9275 11.2045 22.6481C10.9244 22.3683 11.0646 22.0888 11.2045 21.8093C11.2045 21.8093 11.3444 21.6693 11.3444 21.5295C11.3444 21.3898 11.6242 21.3898 11.6242 21.3898C11.6242 21.3898 11.7645 21.3898 11.7645 21.5295C11.9044 21.5295 12.0443 21.5295 12.0443 21.3898C12.1842 21.2501 12.3244 21.2501 12.3244 21.2501C12.4643 21.3898 12.4643 21.5295 12.6042 21.5295L12.4643 21.3898C12.3244 20.8305 12.1842 20.2713 12.1842 19.7124V19.2928H10.2245C10.3644 21.11 10.7845 22.6481 11.6242 24.1858C11.9044 25.0245 12.6042 25.5838 13.1638 26.2828L14.2838 25.1646L14.4237 25.4441ZM12.6042 19.7124L12.7441 20.6908C12.7441 20.9703 13.0239 21.5295 13.0239 21.8093C13.0239 21.6696 13.0239 21.5295 13.3041 21.5295C13.3041 21.3898 13.444 21.2501 13.3041 21.2501C13.3041 20.9703 13.444 20.6908 13.5839 20.4114C13.8641 20.4114 13.8641 20.1315 14.1439 19.9918C14.2838 19.9918 14.424 20.2713 14.424 20.2713C14.1439 19.9918 14.1439 19.7124 14.2838 19.4325H12.4643L12.6042 19.7124ZM20.5829 28.3798C18.343 28.2401 16.3834 27.5411 14.8437 25.8632L13.7242 26.9818C15.4037 28.5199 17.5033 29.4983 19.7431 29.638C20.0229 29.638 20.5829 29.638 20.8627 29.7778L20.7228 29.638L20.5829 28.3798ZM18.903 20.6908C18.903 20.8305 18.7631 20.9703 18.6232 20.9703C18.7631 20.8305 18.903 20.6908 19.0429 20.6908H18.903ZM20.5829 26.1431C19.1832 26.1431 18.0632 25.5838 16.9433 24.7451C16.9433 24.8848 17.2235 25.0245 17.0832 25.0245C16.9433 25.1646 16.8034 25.1646 16.6635 25.1646C16.3834 25.1646 16.1036 25.4441 15.8238 25.4441C15.5436 25.5838 15.5436 25.1646 15.2638 25.1646C16.8034 26.5626 18.6232 27.2616 20.7228 27.4013L20.8627 27.5411V25.8636L20.5829 26.1431ZM31.6408 29.7778C30.801 30.0576 29.6811 30.0576 28.7014 30.4771C30.2411 29.0791 30.2411 26.9818 31.2211 25.4441C31.5009 25.0245 31.7807 24.6053 32.2008 24.0461C31.5009 25.3043 31.9206 26.9818 31.0808 28.2401C30.801 28.7993 30.381 29.2189 29.9613 29.638C30.1012 29.638 30.2411 29.4983 30.381 29.3586C31.6408 28.2401 33.0405 27.8209 34.4403 26.8421C35.0002 26.4225 35.4203 26.0033 35.7001 25.3043C35.5602 27.4013 33.4606 29.2189 31.6408 29.7778ZM30.6611 31.735C28.7014 32.4344 26.8817 31.5953 25.0619 31.3159H24.7821C25.6218 31.036 26.4616 30.8963 27.1615 30.1973C28.1415 29.2189 29.1215 28.2401 30.2411 27.5411C29.4013 28.6596 29.4013 30.1973 28.0016 30.8963C27.7214 31.1761 27.1615 31.1761 26.8817 31.3159C27.4416 31.3159 27.7214 31.036 28.4213 31.036C30.2411 30.7566 32.3407 31.036 33.6005 29.4983C32.9006 30.4771 31.6408 31.4556 30.6611 31.735ZM8.68486 29.638C10.2245 31.3159 12.6042 30.7566 14.5639 31.1761C14.8437 31.1761 15.1239 31.3159 15.4037 31.3159C15.1239 31.1761 14.8437 31.1761 14.5639 31.036C13.0239 30.4771 12.7441 28.939 11.9044 27.6808C13.0239 28.3798 13.8641 29.3586 14.8437 30.337C15.5436 30.8963 16.3834 31.1761 17.3634 31.4556C17.0836 31.5953 16.8034 31.4556 16.5236 31.5953C14.8437 32.0148 13.1642 32.5741 11.3444 32.0149C10.3644 31.4556 9.24482 30.6169 8.68486 29.638ZM21.5626 64.7287H41.8589V85H21.5626V64.7287ZM0.00634766 64.7287H20.3027V85H0.00634766V64.7287ZM21.5626 43.1992H41.8589V63.4704H21.5626V43.1992ZM28.2814 60.1152V54.3831C28.2814 52.1464 28.2814 50.4686 28.1415 48.7911C28.8413 50.3289 29.6811 51.8669 30.6611 53.2649L35.0002 60.1152H36.82V46.6941H35.2804V52.4258C35.2804 54.5228 35.2804 56.2006 35.5602 58.0182C35.0002 56.6202 34.1604 55.2222 33.1804 53.5444L28.8413 46.6941H26.8817V60.2549L28.2814 60.1152ZM5.18555 46.4143V54.3831C5.18555 58.5774 7.28514 60.1152 10.0846 60.1152C13.0239 60.1152 15.1235 58.4374 15.1235 54.2434V46.2746H13.444V54.3831C13.444 57.3192 12.0443 58.7172 10.0846 58.7172C8.2648 58.7172 6.86508 57.4589 6.86508 54.3831V46.4143H5.18555Z" fill="#0156B3"/>
</g>
<defs>
<clipPath id="clip0">
<rect width="42" height="85" fill="white"/>
</clipPath>
</defs>
</svg>
